<svg id="圖層_1" data-name="圖層 1" xmlns="http://www.w3.org/2000/svg" viewBox="0 0 286.05 49.61"><defs><style>.cls-1{isolation:isolate;}.cls-2{fill:#231815;}.cls-3,.cls-4{fill:none;stroke:#000;stroke-miterlimit:10;}.cls-3{stroke-width:1.5px;}.cls-4{stroke-width:1.18px;}</style></defs><g id="TERRA" class="cls-1"><g class="cls-1"><path class="cls-2" d="M126.09,0h10.32a14.92,14.92,0,0,1,6.9,1.54A11.41,11.41,0,0,1,148,5.86a12.22,12.22,0,0,1,1.66,6.39A12.22,12.22,0,0,1,148,18.64,11.41,11.41,0,0,1,143.31,23a14.92,14.92,0,0,1-6.9,1.54H126.09ZM136.2,21.46a11.36,11.36,0,0,0,5.24-1.16,8.39,8.39,0,0,0,3.48-3.24,9.37,9.37,0,0,0,1.22-4.81,9.37,9.37,0,0,0-1.22-4.81,8.39,8.39,0,0,0-3.48-3.24A11.36,11.36,0,0,0,136.2,3h-6.61V21.46Z"/><path class="cls-2" d="M172.78,21.46v3H155V0h17.29V3H158.5v7.53h12.28v3H158.5v7.92Z"/><path class="cls-2" d="M178.45,0H182V21.46h13.26v3H178.45Z"/><path class="cls-2" d="M202.74,3v8.54H215v3H202.74V24.5h-3.5V0h17.29V3Z"/><path class="cls-2" d="M221.46,0H225V24.5h-3.5Z"/><path class="cls-2" d="M253.38,0V24.5h-2.87L235.81,6.23V24.5h-3.5V0h2.87l14.7,18.27V0Z"/></g></g><g id="Storage"><g class="cls-1"><path d="M124.76,46.36a4.65,4.65,0,0,1-1.73-1l.55-1.17a4.75,4.75,0,0,0,1.54.88,5.81,5.81,0,0,0,1.93.34,3.43,3.43,0,0,0,2-.45,1.34,1.34,0,0,0,.64-1.17,1.14,1.14,0,0,0-.35-.88,2.22,2.22,0,0,0-.87-.52c-.34-.12-.83-.25-1.46-.4a14.77,14.77,0,0,1-1.91-.57,3.24,3.24,0,0,1-1.25-.88,2.39,2.39,0,0,1-.52-1.6,2.65,2.65,0,0,1,.45-1.51,3,3,0,0,1,1.34-1.08A5.42,5.42,0,0,1,127.3,36a7.07,7.07,0,0,1,1.83.24,4.9,4.9,0,0,1,1.55.69l-.5,1.2a5.61,5.61,0,0,0-1.41-.64,5.44,5.44,0,0,0-1.47-.21,3.22,3.22,0,0,0-1.91.46,1.44,1.44,0,0,0-.64,1.2,1.16,1.16,0,0,0,.36.88,2.48,2.48,0,0,0,.9.52,12.23,12.23,0,0,0,1.44.4,14.77,14.77,0,0,1,1.91.57,3.25,3.25,0,0,1,1.24.87,2.33,2.33,0,0,1,.51,1.58,2.65,2.65,0,0,1-.45,1.5,2.94,2.94,0,0,1-1.36,1.08,5.56,5.56,0,0,1-2.25.4A7.09,7.09,0,0,1,124.76,46.36Z"/><path d="M137.56,46.15a2.22,2.22,0,0,1-.78.41,3.43,3.43,0,0,1-1,.14,2.55,2.55,0,0,1-1.86-.64,2.48,2.48,0,0,1-.66-1.85V39.85H132V38.66h1.35V36.92h1.44v1.74H137v1.19h-2.28v4.3a1.42,1.42,0,0,0,.32,1,1.23,1.23,0,0,0,.93.35,1.73,1.73,0,0,0,1.12-.38Z"/><path d="M140.31,46.18a3.89,3.89,0,0,1-1.48-1.45,4.41,4.41,0,0,1,0-4.19,3.86,3.86,0,0,1,1.48-1.44,4.41,4.41,0,0,1,2.13-.51,4.35,4.35,0,0,1,2.12.51A3.77,3.77,0,0,1,146,40.54a4.41,4.41,0,0,1,0,4.19,3.79,3.79,0,0,1-1.47,1.45,4.24,4.24,0,0,1-2.12.52A4.31,4.31,0,0,1,140.31,46.18Zm3.5-1.09a2.51,2.51,0,0,0,.95-1,3,3,0,0,0,.35-1.46,3.07,3.07,0,0,0-.35-1.47,2.42,2.42,0,0,0-.95-1,2.73,2.73,0,0,0-1.37-.34,2.77,2.77,0,0,0-1.38.34,2.49,2.49,0,0,0-.95,1,3,3,0,0,0-.36,1.47,2.93,2.93,0,0,0,.36,1.46,2.58,2.58,0,0,0,.95,1,2.77,2.77,0,0,0,1.38.35A2.74,2.74,0,0,0,143.81,45.09Z"/><path d="M151.05,39a4,4,0,0,1,1.78-.36V40h-.33a2.41,2.41,0,0,0-1.83.69,2.75,2.75,0,0,0-.67,2v4h-1.44v-8h1.38V40A2.46,2.46,0,0,1,151.05,39Z"/><path d="M160,39.4a3.1,3.1,0,0,1,.88,2.41v4.8h-1.37v-1a2.32,2.32,0,0,1-1,.85,4.07,4.07,0,0,1-1.59.29,3.28,3.28,0,0,1-2.13-.64,2.07,2.07,0,0,1-.81-1.7,2.1,2.1,0,0,1,.77-1.69,3.8,3.8,0,0,1,2.43-.63h2.28v-.29a1.82,1.82,0,0,0-.54-1.42,2.28,2.28,0,0,0-1.59-.5,4.34,4.34,0,0,0-1.38.23,3.67,3.67,0,0,0-1.14.63l-.6-1.08a4.27,4.27,0,0,1,1.47-.76,6,6,0,0,1,1.81-.26A3.59,3.59,0,0,1,160,39.4Zm-1.43,5.82a2.08,2.08,0,0,0,.87-1V43.07h-2.22q-1.83,0-1.83,1.23a1.12,1.12,0,0,0,.46,1,2.13,2.13,0,0,0,1.29.34A2.65,2.65,0,0,0,158.58,45.22Z"/><path d="M171.21,38.66v6.87a4.09,4.09,0,0,1-1,3.08,4.27,4.27,0,0,1-3.09,1,7.19,7.19,0,0,1-2.14-.31,4.17,4.17,0,0,1-1.65-.87l.69-1.11a4,4,0,0,0,1.37.75,5.12,5.12,0,0,0,1.69.28,2.83,2.83,0,0,0,2.06-.66,2.7,2.7,0,0,0,.67-2v-.63a3.16,3.16,0,0,1-1.25.92,4.14,4.14,0,0,1-1.62.31,4.29,4.29,0,0,1-2.06-.49,3.65,3.65,0,0,1-1.45-1.36,4.13,4.13,0,0,1,0-4,3.63,3.63,0,0,1,1.45-1.35,4.4,4.4,0,0,1,2.06-.48,4.18,4.18,0,0,1,1.67.33,3.07,3.07,0,0,1,1.27,1V38.66Zm-2.74,6a2.48,2.48,0,0,0,1-.92,2.63,2.63,0,0,0,.35-1.34,2.43,2.43,0,0,0-.77-1.87,2.73,2.73,0,0,0-2-.71,2.77,2.77,0,0,0-2,.71,2.43,2.43,0,0,0-.77,1.87,2.54,2.54,0,0,0,.36,1.34,2.39,2.39,0,0,0,1,.92,3,3,0,0,0,1.42.33A2.92,2.92,0,0,0,168.47,44.69Z"/><path d="M181.11,43.12h-6.45a2.49,2.49,0,0,0,.92,1.68,3,3,0,0,0,2,.64,2.94,2.94,0,0,0,2.29-1l.8.93a3.47,3.47,0,0,1-1.35,1,5,5,0,0,1-4-.19,3.62,3.62,0,0,1-1.51-1.44,4.2,4.2,0,0,1-.53-2.1,4.28,4.28,0,0,1,.51-2.09,3.83,3.83,0,0,1,1.43-1.45,4.1,4.1,0,0,1,2.05-.51,4,4,0,0,1,2,.51,3.75,3.75,0,0,1,1.4,1.45,4.47,4.47,0,0,1,.5,2.13A4.21,4.21,0,0,1,181.11,43.12Zm-5.63-2.69a2.52,2.52,0,0,0-.82,1.65h5.1a2.56,2.56,0,0,0-.82-1.64,2.44,2.44,0,0,0-1.73-.64A2.47,2.47,0,0,0,175.48,40.43Z"/><path d="M189.25,46a5.06,5.06,0,0,1-2-1.92,5.53,5.53,0,0,1,0-5.49,5.09,5.09,0,0,1,2-1.93,6.19,6.19,0,0,1,5.72,0,5,5,0,0,1,2,1.92,5.61,5.61,0,0,1,0,5.5A5,5,0,0,1,195,46a6.19,6.19,0,0,1-5.72,0Zm4.95-1.16a3.81,3.81,0,0,0,1.45-1.45,4.27,4.27,0,0,0,0-4.12,3.81,3.81,0,0,0-1.45-1.45,4.44,4.44,0,0,0-4.17,0,3.73,3.73,0,0,0-1.47,1.45,4.2,4.2,0,0,0,0,4.12A3.73,3.73,0,0,0,190,44.87a4.37,4.37,0,0,0,4.17,0Z"/><path d="M206.05,39.1a3.62,3.62,0,0,1,1.43,1.42,4.58,4.58,0,0,1,0,4.24,3.64,3.64,0,0,1-1.43,1.43,4.18,4.18,0,0,1-2.07.51,3.76,3.76,0,0,1-1.62-.34,3.12,3.12,0,0,1-1.21-1v1.26h-1.38V35.48h1.44v4.38a3,3,0,0,1,1.2-1,3.71,3.71,0,0,1,1.57-.32A4.18,4.18,0,0,1,206.05,39.1Zm-.82,6a2.63,2.63,0,0,0,1-1,3,3,0,0,0,.35-1.46,3.07,3.07,0,0,0-.35-1.47,2.54,2.54,0,0,0-1-1,2.91,2.91,0,0,0-2.73,0,2.45,2.45,0,0,0-1,1,3.07,3.07,0,0,0-.35,1.47,3,3,0,0,0,.35,1.46,2.54,2.54,0,0,0,1,1,2.84,2.84,0,0,0,2.73,0Z"/><path d="M210.4,46.44a4.21,4.21,0,0,1-1.41-.67l.6-1.14a4.34,4.34,0,0,0,1.28.6,5.22,5.22,0,0,0,1.51.23q1.89,0,1.89-1.08a.7.7,0,0,0-.25-.57,1.53,1.53,0,0,0-.64-.31c-.25-.07-.62-.14-1.09-.22a10.46,10.46,0,0,1-1.56-.34,2.41,2.41,0,0,1-1-.66,1.85,1.85,0,0,1-.43-1.31,2,2,0,0,1,.9-1.73,4,4,0,0,1,2.41-.65,6.65,6.65,0,0,1,1.59.19,4.31,4.31,0,0,1,1.31.53l-.62,1.14a4.12,4.12,0,0,0-2.29-.63,2.67,2.67,0,0,0-1.4.3.9.9,0,0,0-.48.79.77.77,0,0,0,.27.62,1.75,1.75,0,0,0,.67.33c.27.07.64.15,1.12.24a11.16,11.16,0,0,1,1.55.35,2.24,2.24,0,0,1,1,.64,1.78,1.78,0,0,1,.42,1.26,2,2,0,0,1-.92,1.71,4.3,4.3,0,0,1-2.51.64A6.88,6.88,0,0,1,210.4,46.44Z"/><path d="M224.67,43.12h-6.45a2.45,2.45,0,0,0,.92,1.68,3,3,0,0,0,2,.64,2.94,2.94,0,0,0,2.29-1l.8.93a3.47,3.47,0,0,1-1.35,1,5,5,0,0,1-4-.19,3.62,3.62,0,0,1-1.51-1.44,4.44,4.44,0,0,1,0-4.19,3.67,3.67,0,0,1,1.42-1.45,4.1,4.1,0,0,1,2.05-.51,4,4,0,0,1,2,.51,3.59,3.59,0,0,1,1.39,1.45,4.36,4.36,0,0,1,.51,2.13A4.21,4.21,0,0,1,224.67,43.12ZM219,40.43a2.52,2.52,0,0,0-.82,1.65h5.1a2.52,2.52,0,0,0-.82-1.64,2.44,2.44,0,0,0-1.73-.64A2.47,2.47,0,0,0,219,40.43Z"/><path d="M229.18,39a4.05,4.05,0,0,1,1.79-.36V40h-.33a2.44,2.44,0,0,0-1.84.69,2.75,2.75,0,0,0-.67,2v4h-1.44v-8h1.38V40A2.46,2.46,0,0,1,229.18,39Z"/><path d="M240.1,38.66l-3.48,8h-1.47l-3.48-8h1.5L235.9,45l2.79-6.38Z"/><path d="M246.62,39.4a3.13,3.13,0,0,1,.88,2.41v4.8h-1.37v-1a2.29,2.29,0,0,1-1,.85,4,4,0,0,1-1.58.29,3.28,3.28,0,0,1-2.13-.64,2.07,2.07,0,0,1-.81-1.7,2.1,2.1,0,0,1,.77-1.69,3.8,3.8,0,0,1,2.43-.63h2.28v-.29a1.82,1.82,0,0,0-.54-1.42,2.28,2.28,0,0,0-1.59-.5,4.34,4.34,0,0,0-1.38.23,3.67,3.67,0,0,0-1.14.63l-.6-1.08a4.27,4.27,0,0,1,1.47-.76,6,6,0,0,1,1.81-.26A3.61,3.61,0,0,1,246.62,39.4Zm-1.43,5.82a2.08,2.08,0,0,0,.87-1V43.07h-2.22q-1.83,0-1.83,1.23a1.12,1.12,0,0,0,.46,1,2.13,2.13,0,0,0,1.29.34A2.65,2.65,0,0,0,245.19,45.22Z"/><path d="M256.45,39.1a3.62,3.62,0,0,1,1.43,1.42,4.58,4.58,0,0,1,0,4.24,3.64,3.64,0,0,1-1.43,1.43,4.18,4.18,0,0,1-2.07.51,3.76,3.76,0,0,1-1.62-.34,3.12,3.12,0,0,1-1.21-1v1.26h-1.38V35.48h1.44v4.38a3,3,0,0,1,1.2-1,3.71,3.71,0,0,1,1.57-.32A4.18,4.18,0,0,1,256.45,39.1Zm-.82,6a2.54,2.54,0,0,0,1-1,2.93,2.93,0,0,0,.36-1.46,3,3,0,0,0-.36-1.47,2.45,2.45,0,0,0-1-1,2.91,2.91,0,0,0-2.73,0,2.45,2.45,0,0,0-1,1,3.07,3.07,0,0,0-.35,1.47,3,3,0,0,0,.35,1.46,2.54,2.54,0,0,0,1,1,2.84,2.84,0,0,0,2.73,0Z"/><path d="M260.42,36.86a.87.87,0,0,1-.28-.66.91.91,0,0,1,.28-.67,1,1,0,0,1,.7-.27.93.93,0,0,1,.69.26.83.83,0,0,1,.28.65,1,1,0,0,1-1,1A1,1,0,0,1,260.42,36.86Zm0,1.8h1.44v8H260.4Z"/><path d="M264.58,35.48H266V46.61h-1.44Z"/><path d="M268.79,36.86a.87.87,0,0,1-.28-.66.91.91,0,0,1,.28-.67,1,1,0,0,1,.7-.27.93.93,0,0,1,.69.26.83.83,0,0,1,.28.65,1,1,0,0,1-1,1A1,1,0,0,1,268.79,36.86Zm0,1.8h1.44v8h-1.44Z"/><path d="M277.42,46.15a2.22,2.22,0,0,1-.78.41,3.43,3.43,0,0,1-1,.14,2.55,2.55,0,0,1-1.86-.64,2.48,2.48,0,0,1-.66-1.85V39.85h-1.35V38.66h1.35V36.92h1.44v1.74h2.28v1.19H274.6v4.3a1.42,1.42,0,0,0,.32,1,1.23,1.23,0,0,0,.93.35,1.73,1.73,0,0,0,1.12-.38Z"/><path d="M286.05,38.66l-3.86,8.75A4,4,0,0,1,281,49.12a2.72,2.72,0,0,1-1.64.49,3.31,3.31,0,0,1-1.13-.19,2.23,2.23,0,0,1-.91-.54l.61-1.08a2,2,0,0,0,1.43.58,1.32,1.32,0,0,0,.87-.28,2.27,2.27,0,0,0,.64-1l.26-.55-3.51-7.94h1.5L281.89,45l2.75-6.36Z"/></g></g><line class="cls-3" x1="85.9" y1="44.16" x2="85.9" y2="0.51"/><path id="Path_4416" data-name="Path 4416" class="cls-3" d="M40.89,26.89l-.06-.06a20.85,20.85,0,0,1-6.21-1.47c-1.77-.76-3.37-1.89-5.22-2.48a8.06,8.06,0,0,0-4.76.22,10.83,10.83,0,0,0-6.13,3.74c2.89,2.79,9.87,2.76,12.74,3.24,2,.32,5,1.9,7,2.38,1.78.45,4.57,1,5.47-.5C44.86,30,42.26,28.27,40.89,26.89Z"/><path id="Path_4417" data-name="Path 4417" class="cls-3" d="M20.4,25a9.14,9.14,0,0,0-1.25,1.08A9.14,9.14,0,0,1,20.4,25Z"/><path id="Path_4418" data-name="Path 4418" class="cls-3" d="M35.57,25.72l.6.2Z"/><path id="Path_4419" data-name="Path 4419" class="cls-3" d="M23.81,23.34c.27-.09.55-.17.83-.24C24.36,23.17,24.08,23.25,23.81,23.34Z"/><path id="Path_4420" data-name="Path 4420" class="cls-3" d="M34.62,25.36c.24.1.49.2.75.29C35.11,25.56,34.86,25.46,34.62,25.36Z"/><path id="Path_4421" data-name="Path 4421" class="cls-3" d="M34,31.32,34.3,31a16.13,16.13,0,0,0-3-1c-2.87-.48-9.85-.45-12.74-3.24.18-.23.37-.44.56-.65a10.16,10.16,0,0,0-1.83,2.75"/><path id="Path_4422" data-name="Path 4422" class="cls-3" d="M20.51,24.94a10.08,10.08,0,0,1,1.41-.84A10.08,10.08,0,0,0,20.51,24.94Z"/><path id="Path_4423" data-name="Path 4423" class="cls-3" d="M22.83,23.68c.25-.1.52-.19.79-.28Z"/><path id="Path_4424" data-name="Path 4424" class="cls-3" d="M22.07,24q.38-.18.75-.33Q22.45,23.84,22.07,24Z"/><path id="Path_4425" data-name="Path 4425" class="cls-3" d="M6.25,28.57c-.7-8-.51-14.42,5.61-20.21,9.26-8.74,23.22-3.11,28,3.64a8.24,8.24,0,0,1,1.7,6.7c0,.16-.08.32-.13.48-.78,2.67,2.79,3.67,4,5.39.55.82.62,1.71-.48,2-2.93.79-7.48,0-10.26-1.22-1.77-.76-3.37-1.89-5.22-2.48a8.06,8.06,0,0,0-4.76.22,10.38,10.38,0,0,0-7.4,5.84c-1.14,2.51-1.27,6.79-1.3,9.64"/><path id="Path_4426" data-name="Path 4426" class="cls-3" d="M22,17.84a2.17,2.17,0,1,1-2.16-2.17A2.16,2.16,0,0,1,22,17.84Z"/><path id="Path_4427" data-name="Path 4427" class="cls-3" d="M10,25A4.16,4.16,0,0,1,14.2,25c6.12,3.26-7.35,11.3-10.06,12.44-.83.35-4.35,1.14-2.24-2.73C3.17,32.37,7.26,26.55,10,25Z"/><path class="cls-4" d="M26.51,22.68c.81.56,1.83,1.16,2.6,1.78a62.59,62.59,0,0,0,5.24,4.1c1.72,1.16,4.37,3,6.59,2.77s0-2.12-.67-2.94c-.48-.6-1-1.22-1.39-1.85"/><path class="cls-3" d="M9.9,33.84c3.18,3.36,6.48,5.4,11.21,5.55,5.74.18,11.33-3,12.93-8.07"/><path class="cls-3" d="M10.62,9.35a14.86,14.86,0,0,0-9.35,8.51C-.32,22.17,2,26.4,5.14,29.34"/></svg>