<svg xmlns="http://www.w3.org/2000/svg" width="332" height="40.193" viewBox="0 0 332 40.193"><defs><style>.a{fill:#fff;}</style></defs><g transform="translate(-32 -66)"><g transform="translate(121.12 75.936)"><path class="a" d="M1537.792,212.561a3.828,3.828,0,0,1-1.4,3.288,4.728,4.728,0,0,1-3.569,1.269,4.6,4.6,0,0,1-3.116-1.429,4.322,4.322,0,0,1-1.254-3.1h2.043v.471a2.133,2.133,0,0,0,.827,1.492,2.457,2.457,0,0,0,1.759.746,2.817,2.817,0,0,0,1.966-.717,2.357,2.357,0,0,0,.672-1.68q.026-1.8-2.15-2.471l-1.731-.523A3.6,3.6,0,0,1,1529,206.38a3.44,3.44,0,0,1,1.154-2.784,4.472,4.472,0,0,1,2.971-1.232,4.2,4.2,0,0,1,2.814.924,3.321,3.321,0,0,1,1.414,2.475v.419h-2.069v-.324a1.414,1.414,0,0,0-.66-1.21,2.576,2.576,0,0,0-1.513-.461,2.186,2.186,0,0,0-1.435.569,1.835,1.835,0,0,0-.634,1.362q-.1,1.511,1.888,2.155l1.707.545A4.071,4.071,0,0,1,1537.792,212.561Z" transform="translate(-1528.456 -197.856)"/><path class="a" d="M1563.833,209.729a6.987,6.987,0,0,1-2.315,5.234,7.705,7.705,0,0,1-10.707-.111,6.979,6.979,0,0,1-2.134-5.1,7.057,7.057,0,0,1,2.3-5.283,7.307,7.307,0,0,1,5.482-2.106,7.454,7.454,0,0,1,5.225,2.254A7,7,0,0,1,1563.833,209.729Zm-1.965-.148a5.461,5.461,0,0,0-1.673-3.81,5.262,5.262,0,0,0-3.849-1.584,5.5,5.5,0,0,0-4.018,1.572,5.232,5.232,0,0,0-1.685,3.847,5.3,5.3,0,0,0,1.53,3.9,5.367,5.367,0,0,0,3.862,1.745,5.254,5.254,0,0,0,4.16-1.608A5.392,5.392,0,0,0,1561.869,209.58Z" transform="translate(-1534.842 -197.857)"/><path class="a" d="M1593.091,207.724a6.686,6.686,0,0,1-2.276,5.235,7.474,7.474,0,0,1-5.535,2.105,7.337,7.337,0,0,1-5.211-2.217,6.976,6.976,0,0,1-2.133-5.1,7.066,7.066,0,0,1,2.3-5.283,7.286,7.286,0,0,1,5.472-2.106,7.457,7.457,0,0,1,5.42,2.488v-7.069h1.966Zm-1.966-.148a5.361,5.361,0,0,0-1.645-3.81,5.3,5.3,0,0,0-3.875-1.584,5.508,5.508,0,0,0-4.005,1.571,5.217,5.217,0,0,0-1.7,3.848,5.637,5.637,0,0,0,5.418,5.64,5.566,5.566,0,0,0,5.806-5.666Z" transform="translate(-1544.082 -195.778)"/><path class="a" d="M1622.046,209.7v7.045h-1.966v-2.193a7.612,7.612,0,0,1-11.052.271,6.969,6.969,0,0,1-2.138-5.1,7.059,7.059,0,0,1,2.3-5.283,7.257,7.257,0,0,1,5.509-2.081,7.576,7.576,0,0,1,5.276,2.254A6.584,6.584,0,0,1,1622.046,209.7Zm-1.966-.136a5.532,5.532,0,0,0-5.521-5.381,5.615,5.615,0,0,0-4.018,1.58,5.177,5.177,0,0,0-1.685,3.827,5.255,5.255,0,0,0,1.543,3.888,5.482,5.482,0,0,0,3.849,1.765,5.622,5.622,0,0,0,5.833-5.678Z" transform="translate(-1553.226 -197.856)"/></g><g transform="translate(209.837 75.906)"><path class="a" d="M1663.812,202.41h-3.724v12.316h-1.966V200.415a4.271,4.271,0,0,1,1.448-3.46,5.583,5.583,0,0,1,3.724-1.22h.517v1.676h-.521a3.415,3.415,0,0,0-2.213.694,2.865,2.865,0,0,0-.989,1.986v.6h3.724Z" transform="translate(-1658.122 -195.735)"/><path class="a" d="M1687.754,209.83a6.989,6.989,0,0,1-2.315,5.235,7.706,7.706,0,0,1-10.707-.111,6.978,6.978,0,0,1-2.134-5.1,7.058,7.058,0,0,1,2.3-5.283,7.305,7.305,0,0,1,5.483-2.106,7.45,7.45,0,0,1,5.224,2.254A7,7,0,0,1,1687.754,209.83Zm-1.966-.148a5.465,5.465,0,0,0-1.672-3.81,5.263,5.263,0,0,0-3.849-1.583,5.5,5.5,0,0,0-4.018,1.572,5.229,5.229,0,0,0-1.684,3.847,5.3,5.3,0,0,0,1.529,3.9,5.369,5.369,0,0,0,3.863,1.745,5.252,5.252,0,0,0,4.16-1.609A5.389,5.389,0,0,0,1685.789,209.682Z" transform="translate(-1662.694 -197.859)"/><path class="a" d="M1714.474,210.977a6.139,6.139,0,0,1-1.85,4.557,6.888,6.888,0,0,1-9.336,0,6.135,6.135,0,0,1-1.85-4.557v-8.005h1.966v8.242a4.023,4.023,0,0,0,1.365,3.049,4.63,4.63,0,0,0,6.372,0,4.024,4.024,0,0,0,1.366-3.049v-8.242h1.966Z" transform="translate(-1671.802 -198.021)"/><path class="a" d="M1740.469,216.864H1738.5v-8.2a4.044,4.044,0,0,0-1.366-3.054,4.636,4.636,0,0,0-6.4,0,4.046,4.046,0,0,0-1.365,3.054v8.2h-1.966v-8.005a6.078,6.078,0,0,1,1.862-4.545,6.926,6.926,0,0,1,9.337,0,6.076,6.076,0,0,1,1.862,4.545Z" transform="translate(-1680.003 -197.873)"/><path class="a" d="M1768.871,207.826a6.686,6.686,0,0,1-2.276,5.234,7.47,7.47,0,0,1-5.535,2.105,7.333,7.333,0,0,1-5.211-2.216,6.978,6.978,0,0,1-2.134-5.1,7.067,7.067,0,0,1,2.3-5.284,7.289,7.289,0,0,1,5.472-2.106,7.456,7.456,0,0,1,5.42,2.488V195.88h1.966Zm-1.966-.148a5.361,5.361,0,0,0-1.646-3.81,5.294,5.294,0,0,0-3.875-1.585,5.511,5.511,0,0,0-4.005,1.572,5.215,5.215,0,0,0-1.7,3.847,5.635,5.635,0,0,0,5.417,5.64,5.565,5.565,0,0,0,5.807-5.665Z" transform="translate(-1688.311 -195.781)"/><path class="a" d="M1797.826,209.8v7.045h-1.966v-2.192a7.612,7.612,0,0,1-11.052.271,6.971,6.971,0,0,1-2.138-5.1,7.057,7.057,0,0,1,2.3-5.283,7.255,7.255,0,0,1,5.508-2.081,7.572,7.572,0,0,1,5.276,2.254A6.58,6.58,0,0,1,1797.826,209.8Zm-1.966-.135a5.531,5.531,0,0,0-5.521-5.381,5.617,5.617,0,0,0-4.018,1.579,5.181,5.181,0,0,0-1.685,3.827,5.262,5.262,0,0,0,1.543,3.888,5.489,5.489,0,0,0,3.849,1.765,5.621,5.621,0,0,0,5.833-5.678Z" transform="translate(-1697.456 -197.858)"/><path class="a" d="M1817,215.033q-5.38,0-5.38-4.36v-14.9h1.966v4.9H1817v1.749h-3.414v7.932q0,3.128,3.414,3.128Z" transform="translate(-1706.6 -195.746)"/><path class="a" d="M1827.766,199.011H1825.8v-3.276h1.966Zm0,15.715H1825.8v-14.04h1.966Z" transform="translate(-1711.076 -195.735)"/><path class="a" d="M1850.745,209.83a6.989,6.989,0,0,1-2.315,5.235,7.706,7.706,0,0,1-10.707-.111,6.98,6.98,0,0,1-2.134-5.1,7.057,7.057,0,0,1,2.3-5.283,7.3,7.3,0,0,1,5.482-2.106,7.451,7.451,0,0,1,5.224,2.254A7,7,0,0,1,1850.745,209.83Zm-1.965-.148a5.462,5.462,0,0,0-1.673-3.81,5.261,5.261,0,0,0-3.849-1.583,5.5,5.5,0,0,0-4.018,1.572,5.23,5.23,0,0,0-1.685,3.847,5.3,5.3,0,0,0,1.53,3.9,5.368,5.368,0,0,0,3.862,1.745,5.252,5.252,0,0,0,4.16-1.609A5.389,5.389,0,0,0,1848.78,209.682Z" transform="translate(-1714.167 -197.859)"/><path class="a" d="M1877.416,216.864h-1.966v-8.2a4.046,4.046,0,0,0-1.365-3.054,4.636,4.636,0,0,0-6.4,0,4.044,4.044,0,0,0-1.366,3.054v8.2h-1.965v-8.005a6.077,6.077,0,0,1,1.862-4.545,6.926,6.926,0,0,1,9.336,0,6.078,6.078,0,0,1,1.862,4.545Z" transform="translate(-1723.253 -197.873)"/></g><g transform="translate(32 66)"><path class="a" d="M1493.311,212.9a31.839,31.839,0,0,1,3.541,1.167A31.789,31.789,0,0,0,1493.311,212.9Z" transform="translate(-1428.236 -191.25)"/><path class="a" d="M1476.023,210.273a41.377,41.377,0,0,1,9.661.184h0c-1.957-1.813-4.032-3.59-6.814-3.752-1.171-.064-2.17-.112-2.218.281-.014.118.228.2.474.341a3.409,3.409,0,0,1,1.426,1.333C1478.672,208.914,1478.876,209.687,1476.023,210.273Z" transform="translate(-1422.777 -189.28)"/><path class="a" d="M1490.148,212.209c.579.1,1.166.224,1.755.37C1491.314,212.435,1490.727,212.3,1490.148,212.209Z" transform="translate(-1427.238 -191.031)"/><path class="a" d="M1508.117,220.919c0-.1.014-.2.012-.286C1508.131,220.714,1508.119,220.817,1508.117,220.919Z" transform="translate(-1432.912 -193.692)"/><path class="a" d="M1454.513,223.426l.029-.026Z" transform="translate(-1415.984 -194.566)"/><path class="a" d="M1493.311,212.9a31.839,31.839,0,0,1,3.541,1.167A31.789,31.789,0,0,0,1493.311,212.9Z" transform="translate(-1428.236 -191.25)"/><path class="a" d="M1476.023,210.273a41.377,41.377,0,0,1,9.661.184h0c-1.957-1.813-4.032-3.59-6.814-3.752-1.171-.064-2.17-.112-2.218.281-.014.118.228.2.474.341a3.409,3.409,0,0,1,1.426,1.333C1478.672,208.914,1478.876,209.687,1476.023,210.273Z" transform="translate(-1422.777 -189.28)"/><path class="a" d="M1508.117,220.919c0-.1.014-.2.012-.286C1508.131,220.714,1508.119,220.817,1508.117,220.919Z" transform="translate(-1432.912 -193.692)"/><path class="a" d="M1490.148,212.209c.579.1,1.166.224,1.755.37C1491.314,212.435,1490.727,212.3,1490.148,212.209Z" transform="translate(-1427.238 -191.031)"/><path class="a" d="M1453.821,223.871a5.368,5.368,0,0,0-.429.437A5.47,5.47,0,0,1,1453.821,223.871Z" transform="translate(-1415.63 -194.714)"/><path class="a" d="M1452.765,225.611a.729.729,0,0,1,.039-.191A.74.74,0,0,0,1452.765,225.611Z" transform="translate(-1415.432 -195.204)"/><path class="a" d="M1452.855,225.224a1.472,1.472,0,0,1,.12-.228A1.442,1.442,0,0,0,1452.855,225.224Z" transform="translate(-1415.46 -195.07)"/><path class="a" d="M1453.091,224.845c.023-.032.051-.068.077-.1C1453.142,224.778,1453.114,224.813,1453.091,224.845Z" transform="translate(-1415.535 -194.989)"/><path class="a" d="M1445.587,227.88c-.511.135-.9-.446-.517-.776a10.462,10.462,0,0,1,4.722-2.124c2.563-.534,1.234,2.487.233,4.306a.784.784,0,0,1-1.445-.33v-.046c.014-1.484-1.4-1.5-2.191-1.287C1446.081,227.706,1445.818,227.817,1445.587,227.88Z" transform="translate(-1412.952 -195.045)"/><path class="a" d="M1484.306,210.777s2.245,1.451,1.713,1.336a25.316,25.316,0,0,0-9.083-.346,6.148,6.148,0,0,1,1.327-.634,16.816,16.816,0,0,1,2.855-.346C1481.2,210.816,1484.306,210.777,1484.306,210.777Z" transform="translate(-1423.065 -190.579)"/><path class="a" d="M1495.764,217.9l.005-.021c.089-.394-.53-1.152-.836-1.327a43.925,43.925,0,0,0-11.238-4.668c-6.484-1.729-7.262-.778-7.262-.778s-2.766.519-3.371.691-4,1.935-4,1.935,2.963,2.3,3.741,3.079c.075.077.16.159.245.242-.413-.434-.832-.859-1.217-1.227.153-.044.318-.1.461-.135a.079.079,0,0,0,.017.016,20.3,20.3,0,0,1,3.415-.784c.256-.03.486-.066.778-.107.593-.068,1.223-.125,1.894-.161.135,0,.283-.008.434-.013.046,0,.093,0,.139,0,.325-.012.684-.017,1.093-.023,7.217,0,8.4,2.323,12.443,3.294a11.145,11.145,0,0,0,2.127.366C1495.034,218.288,1495.635,218.4,1495.764,217.9Zm-2.416-.963a1.442,1.442,0,0,1-1.052-.108,1.124,1.124,0,0,1-.522-.7,1.315,1.315,0,0,1-.071-.488c0,.006,1.985,1,1.985,1A1.476,1.476,0,0,1,1493.348,216.935Z" transform="translate(-1420.578 -190.6)"/><g transform="translate(31.962 28.772)"><g transform="translate(0 1.1)"><path class="a" d="M1445.587,227.88c-.511.135-.9-.446-.517-.776a10.462,10.462,0,0,1,4.722-2.124c2.563-.534,1.234,2.487.233,4.306a.784.784,0,0,1-1.445-.33v-.046c.014-1.484-1.4-1.5-2.191-1.287C1446.081,227.706,1445.818,227.817,1445.587,227.88Z" transform="translate(-1444.914 -224.917)"/></g><path class="a" d="M1457.133,224.4c-.635.173-1.217.337-1.677.469-.675.2-1.208.348-1.391.367a1.929,1.929,0,0,1-.224.012c-.413,0-.7-.115-.735-.226-.005-.019-.1-.445,1.357-1.58l-.4-.133c-2.253,1.819-1.1,2.285-.226,2.285a2.278,2.278,0,0,0,.263-.014c.373-.04,1.657-.46,3.52-.954C1457.5,224.562,1457.334,224.487,1457.133,224.4Z" transform="translate(-1447.391 -223.309)"/><path class="a" d="M1455.628,224.15c-1.124.461-2.077.82-2.865,1.082-.008.559.818.673,1.343.612.366-.04,1.618-.446,3.433-.931Z" transform="translate(-1447.393 -223.575)"/></g><path class="a" d="M1496.514,217.142c-.183-.138-.59-.167-.7-.351-.089-.151-.034-.405-.039-.571a1.071,1.071,0,0,0-.272-.69,6.981,6.981,0,0,0-1.871-1.338,33.282,33.282,0,0,0-10.164-3.736c-1.957-1.813-4.032-3.59-6.814-3.752-.411-.023-.8-.043-1.137-.043-.619,0-1.051.07-1.082.324-.014.118.228.2.473.341a3.41,3.41,0,0,1,1.426,1.333c.118.254.321,1.027-2.532,1.613a23.089,23.089,0,0,0-4.816,1.884l.339.222a22.254,22.254,0,0,1,4.547-1.767c1.579-.324,2.484-.755,2.767-1.316a.867.867,0,0,0,.01-.779,3.734,3.734,0,0,0-1.566-1.489l-.005,0c.109-.01.252-.017.438-.017.318,0,.695.018,1.117.042,2.609.153,4.61,1.819,6.6,3.661a.349.349,0,0,0,.178.088,32.561,32.561,0,0,1,10.052,3.7,6.709,6.709,0,0,1,1.777,1.262.728.728,0,0,1,.186.473,1.2,1.2,0,0,1,0,.127,1.054,1.054,0,0,0,.1.616,1,1,0,0,0,.578.361,1.133,1.133,0,0,1,.217.088c.179.13.156.239.153.265-.03.042-.15.1-.547.169l-.051.009a8.469,8.469,0,0,1-1.387.094c-.217,0-.433,0-.648-.01-1.513-.035-3.048-.2-4.532-.356-1.407-.151-2.863-.307-4.312-.354l-.865-.028c-1.508-.051-2.932-.1-4.423-.1-.333,0-.668,0-1.009.008a.355.355,0,0,0-.072.01c-.384.006-2.294.038-3.934.088.1.12.194.229.285.337,1.767-.05,3.723-.081,3.723-.081l0-.008q.509-.008,1-.008c1.766,0,3.431.067,5.277.127,2.965.1,5.885.642,8.848.711.218.005.437.01.656.01a8.909,8.909,0,0,0,1.444-.1c.251-.042.807-.114.874-.432A.61.61,0,0,0,1496.514,217.142Z" transform="translate(-1420.554 -189.28)"/><path class="a" d="M1496.514,217.142c-.183-.138-.59-.167-.7-.351-.089-.151-.034-.405-.039-.571a1.071,1.071,0,0,0-.272-.69,6.981,6.981,0,0,0-1.871-1.338,33.282,33.282,0,0,0-10.164-3.736c-1.957-1.813-4.032-3.59-6.814-3.752-.411-.023-.8-.043-1.137-.043-.619,0-1.051.07-1.082.324-.014.118.228.2.473.341a3.41,3.41,0,0,1,1.426,1.333c.118.254.321,1.027-2.532,1.613a23.089,23.089,0,0,0-4.816,1.884l.339.222a22.254,22.254,0,0,1,4.547-1.767c1.579-.324,2.484-.755,2.767-1.316a.867.867,0,0,0,.01-.779,3.734,3.734,0,0,0-1.566-1.489l-.005,0c.109-.01.252-.017.438-.017.318,0,.695.018,1.117.042,2.609.153,4.61,1.819,6.6,3.661a.349.349,0,0,0,.178.088,32.561,32.561,0,0,1,10.052,3.7,6.709,6.709,0,0,1,1.777,1.262.728.728,0,0,1,.186.473,1.2,1.2,0,0,1,0,.127,1.054,1.054,0,0,0,.1.616,1,1,0,0,0,.578.361,1.133,1.133,0,0,1,.217.088c.179.13.156.239.153.265-.03.042-.15.1-.547.169l-.051.009a8.469,8.469,0,0,1-1.387.094c-.217,0-.433,0-.648-.01-1.513-.035-3.048-.2-4.532-.356-1.407-.151-2.863-.307-4.312-.354l-.865-.028c-1.508-.051-2.932-.1-4.423-.1-.333,0-.668,0-1.009.008a.355.355,0,0,0-.072.01c-.384.006-2.294.038-3.934.088.1.12.194.229.285.337,1.767-.05,3.723-.081,3.723-.081l0-.008q.509-.008,1-.008c1.766,0,3.431.067,5.277.127,2.965.1,5.885.642,8.848.711.218.005.437.01.656.01a8.909,8.909,0,0,0,1.444-.1c.251-.042.807-.114.874-.432A.61.61,0,0,0,1496.514,217.142Z" transform="translate(-1420.554 -189.28)"/><path class="a" d="M1399.388,222.891a.718.718,0,0,1-1.127-.824,14.678,14.678,0,0,1,4.826-5.756c2.991-2.23,3.066,2.882,2.855,6.077a1.074,1.074,0,0,1-2.06.349c-.008-.021-.016-.042-.025-.062-.865-2.152-2.7-1.377-3.59-.608C1399.923,222.358,1399.648,222.67,1399.388,222.891Z" transform="translate(-1398.199 -192.154)"/><g transform="translate(4.939)"><path class="a" d="M1409.162,199.067a23.8,23.8,0,0,1,2.972-3.9A21.976,21.976,0,0,0,1409.162,199.067Z" transform="translate(-1406.6 -185.648)"/><path class="a" d="M1437.382,184.213c-.946-1.217-2.487.209-3.651-.305-.657-.289-1.037-.968-1.53-1.452a4,4,0,0,0-1.8-1.074,8.153,8.153,0,0,0-4.3.53c-.727.232-1.46.459-2.179.721a35.953,35.953,0,0,0-10.958,6.248,27.424,27.424,0,0,1,8.369-2.755c1-.159,2.289-.238,3.279-.357-1.078.13-9.236,3.542-14.191,7.811-1.227,1.06-2.4,2.166-3.563,3.293a17.321,17.321,0,0,0-1.374,8.383.9.9,0,0,0,1.614.486c.212-.274.465-.588.728-.909-.027.034-.063.074-.09.107a21.79,21.79,0,0,0,1.455-2.876,27.856,27.856,0,0,1,19.941-13.6c2.07-.349,4.435-.413,6.4-1.206a4.422,4.422,0,0,0,1.828-1.2,1.874,1.874,0,0,0,.292-1.037A1.407,1.407,0,0,0,1437.382,184.213Zm-8.55.876a2.353,2.353,0,0,1-1.374-.452l.436-.773v.014c.021-.021,1.058.536,1.058.536s.68-1.187.994-.515C1429.947,183.9,1430.306,184.849,1428.832,185.089Z" transform="translate(-1405.418 -181.256)"/><path class="a" d="M1407.433,203.934c.018-.018.038-.035.057-.053.062-.146.131-.291.2-.436C1407.608,203.611,1407.507,203.767,1407.433,203.934Z" transform="translate(-1406.054 -188.264)"/><path class="a" d="M1415.454,192.986c.22-.2.45-.39.676-.584-.05.027-.1.047-.152.073C1415.8,192.639,1415.633,192.818,1415.454,192.986Z" transform="translate(-1408.588 -184.776)"/><path class="a" d="M1451.863,188.5a1.343,1.343,0,0,0,.249-.373c-.024.032-.059.063-.085.1A1.48,1.48,0,0,1,1451.863,188.5Z" transform="translate(-1420.086 -183.425)"/></g><path class="a" d="M1430.493,191.327a9.461,9.461,0,0,1-3.235,1.887c-1.158.463-2.393.978-3.58,1.349a.242.242,0,0,0-.058.441c2.451,1.5,8.068.259,7.7-3.338a.486.486,0,0,0-.826-.339Z" transform="translate(-1406.19 -184.391)"/><path class="a" d="M1417.923,188.29c1.182-.753,3.017-1.892,4.073-2.392a18.013,18.013,0,0,1,1.766-.729l0,0a7.846,7.846,0,0,0-4.213-.635,9.8,9.8,0,0,0-5.218,2.476c-.192.175-2.063,2.228-.823,2.124C1414.55,189.048,1416.635,187.857,1417.923,188.29Z" transform="translate(-1402.901 -182.269)"/><path class="a" d="M1429.322,181.6a4.041,4.041,0,0,1,1,.117,3.651,3.651,0,0,1,1.641.984c.143.14.278.3.422.471a3.45,3.45,0,0,0,1.211,1.05,1.8,1.8,0,0,0,.74.146,4.8,4.8,0,0,0,1.093-.17,4.2,4.2,0,0,1,.906-.147.9.9,0,0,1,.779.374,1.056,1.056,0,0,1,.2.6,1.485,1.485,0,0,1-.359,1.058,7.664,7.664,0,0,1-2.286,1.428l-.167.079c-.988.473-2.036.895-3.049,1.3-.623.251-1.267.511-1.884.777-3.606,1.557-6.846,2.984-9.972,4.688a42.866,42.866,0,0,0-12.768,11.167.54.54,0,0,1-.432.217.557.557,0,0,1-.564-.519c-.926-11.2,8.8-18.85,18.213-22.268.612-.223,1.246-.424,1.858-.619l.307-.1a10.627,10.627,0,0,1,3.119-.64m0-.346a10.923,10.923,0,0,0-3.224.656c-.727.232-1.46.459-2.179.721-9.655,3.506-19.379,11.254-18.44,22.622a.9.9,0,0,0,.909.837.882.882,0,0,0,.7-.35,42.588,42.588,0,0,1,12.661-11.076c3.219-1.754,6.58-3.223,9.943-4.674,1.61-.694,3.334-1.316,4.945-2.086a8.521,8.521,0,0,0,2.552-1.579,1.827,1.827,0,0,0,.456-1.314,1.409,1.409,0,0,0-.269-.8,1.243,1.243,0,0,0-1.052-.506c-.635,0-1.346.317-2,.317a1.47,1.47,0,0,1-.6-.116c-.657-.289-1.037-.968-1.53-1.452a4,4,0,0,0-1.8-1.074,4.392,4.392,0,0,0-1.08-.126Z" transform="translate(-1400.479 -181.256)"/><path class="a" d="M1433.692,195.79c-.255.352-.521.7-.805,1.041-.815.981-1.617,2.063-2.494,2.99a.259.259,0,0,0,.181.437,5.672,5.672,0,0,0,4.5-2.214,5,5,0,0,0,1.325-3.4Z" transform="translate(-1408.344 -185.485)"/><g transform="translate(15.122 16.369)"><g transform="translate(7.128 2.821)"><path class="a" d="M1466.479,214.281a5.2,5.2,0,0,0,3.48,4.471c.114.027.23.053.349.073a5.91,5.91,0,0,0,1.888.052l-.005-.027a3.938,3.938,0,0,0,1.327-.374c-.026-.029-.051-.06-.077-.088a26.264,26.264,0,0,0-6.9-5.407A5.1,5.1,0,0,0,1466.479,214.281Z" transform="translate(-1442.007 -210.464)"/><path class="a" d="M1478.182,222.665c.151.188.3.375.444.565-.348-.471-.721-.924-1.1-1.368.106.119.214.238.314.363C1477.956,222.368,1478.065,222.516,1478.182,222.665Z" transform="translate(-1445.5 -213.269)"/><path class="a" d="M1458.1,216.852c-.023-.144-.047-.287-.058-.43a5.2,5.2,0,0,1,2.822-5.079c-.163-.078-.315-.176-.479-.25a19.714,19.714,0,0,0-9.031-1.768C1451.607,215.052,1458.1,216.852,1458.1,216.852Z" transform="translate(-1437.236 -209.303)"/><path class="a" d="M1438.865,211.342a26.791,26.791,0,0,0-7.91,5.14c-.008.005-.01.011-.017.016-1.093.987,2.21.687,3.372.77,1.261.092,2.517.237,3.769.419-.031-.005-.061-.012-.092-.016A12.864,12.864,0,0,1,1438.865,211.342Z" transform="translate(-1430.72 -209.947)"/><path class="a" d="M1446.8,209.949c.158-.038.318-.072.477-.107C1447.118,209.877,1446.959,209.911,1446.8,209.949Z" transform="translate(-1435.798 -209.473)"/><path class="a" d="M1444.141,210.692c.174-.06.347-.12.522-.174C1444.488,210.573,1444.315,210.632,1444.141,210.692Z" transform="translate(-1434.958 -209.687)"/><path class="a" d="M1480.748,226.35a18.069,18.069,0,0,0-.963-1.55c.1.146.2.288.3.436C1480.319,225.6,1480.542,225.969,1480.748,226.35Z" transform="translate(-1446.215 -214.197)"/><path class="a" d="M1455.722,224.02c-.346-.122-.7-.235-1.052-.351-.28-.09-.561-.187-.842-.277l-.019,0q1.922.6,3.8,1.333Q1456.67,224.354,1455.722,224.02Z" transform="translate(-1438.011 -213.751)"/><path class="a" d="M1450.6,222.492c-.158-.046-.316-.092-.475-.135-.557-.152-1.115-.292-1.677-.421l-.237-.062-.09-.02q1.806.42,3.58.961Q1451.156,222.647,1450.6,222.492Z" transform="translate(-1436.217 -213.267)"/><path class="a" d="M1444.83,221.183c-.03-.008-.057-.011-.085-.019-.5-.1-1.013-.17-1.52-.254.93.154,1.86.322,2.782.524C1445.615,221.348,1445.224,221.262,1444.83,221.183Z" transform="translate(-1434.669 -212.969)"/><path class="a" d="M1447.5,209.721c.513-.107,1.03-.2,1.553-.262C1448.527,209.522,1448.01,209.614,1447.5,209.721Z" transform="translate(-1436.018 -209.352)"/><path class="a" d="M1444.9,210.354q.643-.2,1.3-.356C1445.765,210.1,1445.332,210.218,1444.9,210.354Z" transform="translate(-1435.199 -209.523)"/><path class="a" d="M1453.359,223.257c.1.03.205.057.308.089C1453.564,223.314,1453.461,223.287,1453.359,223.257Z" transform="translate(-1437.869 -213.71)"/><path class="a" d="M1441.476,220.617c.4.057.8.133,1.2.2C1442.274,220.749,1441.877,220.674,1441.476,220.617Z" transform="translate(-1434.116 -212.876)"/><path class="a" d="M1442.895,211.047c-.091.036-.18.079-.269.114h0q.514-.208,1.037-.389C1443.406,210.862,1443.148,210.948,1442.895,211.047Z" transform="translate(-1434.479 -209.767)"/><path class="a" d="M1479.565,224.48c-.138-.2-.275-.408-.421-.608l-.009-.011c.155.21.3.428.445.642Z" transform="translate(-1446.01 -213.901)"/><path class="a" d="M1450.851,209.337c-.364.018-.725.043-1.084.083.36-.04.723-.065,1.084-.083Z" transform="translate(-1436.735 -209.314)"/><path class="a" d="M1447.291,221.676c.19.041.382.079.571.121C1447.673,221.753,1447.481,221.717,1447.291,221.676Z" transform="translate(-1435.953 -213.211)"/><path class="a" d="M1466.162,212.724h0c-.293-.162-.594-.305-.894-.452l-.015.01c.307.148.606.312.907.475C1466.16,212.745,1466.16,212.735,1466.162,212.724Z" transform="translate(-1441.625 -210.241)"/><path class="a" d="M1477.107,221.385c-.109-.125-.218-.252-.328-.376h0c.174.19.343.387.511.582C1477.226,221.524,1477.167,221.454,1477.107,221.385Z" transform="translate(-1445.264 -213)"/></g><path class="a" d="M1445.741,209.64h0a19.629,19.629,0,0,1,7.984,1.767,25.163,25.163,0,0,1,8.175,6.051,20.9,20.9,0,0,1,3.05,4.161l.053.1a4.714,4.714,0,0,1,.735,2.028,4,4,0,0,1-.643,2.33,3.078,3.078,0,0,1-.2.275.345.345,0,0,0-.011.425,2.661,2.661,0,0,1,.573,1.991,1.4,1.4,0,0,1-1.4,1.193,1.567,1.567,0,0,1-.75-.2A7.486,7.486,0,0,1,1461,227.4c-.182-.249-.363-.5-.55-.738-2.116-2.719-5.3-4.851-10.008-6.712a54.727,54.727,0,0,0-16.109-3.669c-.226-.017-.523-.018-.809-.018h-.561a8.084,8.084,0,0,1-1.827-.123l.01-.01.032-.027.01-.009c2.779-2.547,7.22-5.715,12.6-6.34a17.014,17.014,0,0,1,1.949-.111m0-.346a17.562,17.562,0,0,0-1.988.113c-4.822.56-9.219,3.149-12.8,6.429-.008.005-.01.011-.017.016-.785.709.7.753,2.027.753h.561c.3,0,.579,0,.785.018a54.529,54.529,0,0,1,16.007,3.647c3.724,1.47,7.4,3.444,9.861,6.6.89,1.146,1.654,2.476,2.965,3.192a1.891,1.891,0,0,0,.916.24,1.75,1.75,0,0,0,1.736-1.478,3,3,0,0,0-.635-2.258,3.585,3.585,0,0,0,.223-.3,4.325,4.325,0,0,0,.7-2.532,5.281,5.281,0,0,0-.83-2.278,21.439,21.439,0,0,0-3.1-4.23,25.673,25.673,0,0,0-8.287-6.132,19.931,19.931,0,0,0-8.127-1.8Z" transform="translate(-1423.592 -206.479)"/><path class="a" d="M1426.03,223.963c.623.313,1.445-.271,1.888-.876.842-1.16,2.094-3.144,1.58-4.674-.8-2.373-6.321-2.17-8.707-1.065-1.607.746,1.15,1.063,2.448,1.387a2.733,2.733,0,0,1,2,2.558,5.692,5.692,0,0,0,.415,2.319A.988.988,0,0,0,1426.03,223.963Z" transform="translate(-1420.302 -208.773)"/><path class="a" d="M1476.254,229.319a.982.982,0,1,1-.982-.981A.983.983,0,0,1,1476.254,229.319Z" transform="translate(-1437.352 -212.494)"/><path class="a" d="M1478.588,236.8a2.08,2.08,0,0,1-.35-.383c-.054-.079-.116-.155-.169-.238s-.09-.187-.135-.282a1.62,1.62,0,0,1-.117-.31,3.278,3.278,0,0,1-.1-.333c-.025-.119-.051-.235-.075-.357s-.037-.252-.057-.376c-.038-.26-.073-.519-.109-.781s-.094-.534-.145-.8a4.852,4.852,0,0,0-.246-.759,3.241,3.241,0,0,0-.353-.665,4.42,4.42,0,0,0-.43-.519c-.155-.14-.313-.251-.445-.354a2.356,2.356,0,0,0-.366-.207l-.33-.163.276.241a2.8,2.8,0,0,1,.315.278c.1.116.219.244.348.389.1.166.231.325.328.519a3.892,3.892,0,0,1,.263.627,6.264,6.264,0,0,1,.189.711c.044.251.091.5.122.768s.084.527.127.784a5.451,5.451,0,0,0,.184.771,2.269,2.269,0,0,0,.132.362,1.842,1.842,0,0,0,.168.333c.065.1.127.2.187.3s.156.162.228.241a1.62,1.62,0,0,0,.376.306c.079-.016.154-.036.228-.057C1478.619,236.828,1478.6,236.817,1478.588,236.8Z" transform="translate(-1437.628 -213.106)"/><path class="a" d="M1466.017,229.247c-.144.214-.311.455-.333.478a3.64,3.64,0,0,1-1.988.847c-.371.088-1.321.278-1.21.846.157.806,2.385.954,2.951.973a10.114,10.114,0,0,0,2.782-.276c.371-.1.7-.19,1.006-.281A15.112,15.112,0,0,0,1466.017,229.247Z" transform="translate(-1433.621 -212.781)"/><path class="a" d="M1459.286,208.982c1.295.454,3.6,1.288,4.663,1.827a.706.706,0,0,0,.029-.377,6.993,6.993,0,0,0-3.153-4.366c-.593-.324-3.636-1.516-3.551-.456C1457.353,206.588,1459.29,207.07,1459.286,208.982Z" transform="translate(-1431.977 -205.18)"/><path class="a" d="M1461.272,226.412a17.349,17.349,0,0,1-1.841.02.313.313,0,0,0-.228.463c.972,1.64,4.406,2.242,6.509,2.022C1464.29,228.01,1462.523,227.059,1461.272,226.412Z" transform="translate(-1432.575 -211.885)"/></g><path class="a" d="M1497.638,222.761" transform="translate(-1429.603 -194.364)"/><path class="a" d="M1490.08,222.364c-1.017-.073-1.888-.114-2.568-.138a15.372,15.372,0,0,1-1.627,1.186.255.255,0,0,0,.061.416c1.313.6,3.859-.351,5.41-1.368C1490.985,222.431,1490.571,222.4,1490.08,222.364Z" transform="translate(-1425.865 -194.195)"/><path class="a" d="M1489.934,222.316a8.449,8.449,0,0,1-.493,2.02c-.667,1.619,1.479.766,2.136.456a4.132,4.132,0,0,0,1.667-1.3c.227-.313.4-.654.625-.966C1492.952,222.467,1491.151,222.358,1489.934,222.316Z" transform="translate(-1426.974 -194.223)"/></g></g></svg>