<?xml version="1.0" encoding="UTF-8"?>
<svg width="48px" height="30px" viewBox="0 0 48 30" version="1.1" xmlns="http://www.w3.org/2000/svg" xmlns:xlink="http://www.w3.org/1999/xlink">
    <!-- Generator: Sketch 52.6 (67491) - http://www.bohemiancoding.com/sketch -->
    <title>alibaba_logo_selected</title>
    <desc>Created with Sketch.</desc>
    <g id="All-Resources-icons" stroke="none" stroke-width="1" fill="none" fill-rule="evenodd">
        <g id="Res-03" transform="translate(-704.000000, -432.000000)" fill="#FC6C05" fill-rule="nonzero">
            <g id="alibaba_logo_selected" transform="translate(704.000000, 432.000000)">
                <path d="M6.60537313,0.358208955 C4.42746269,0.784477612 2.08835821,2.53253731 1.11402985,4.44179104 C0.139701493,6.35104478 0.107462687,6.80597015 0.107462687,14.8441791 C0.107462687,19.1426866 0.179104478,22.6567164 0.286567164,23.2155224 C0.930563402,26.472836 3.47701475,29.0192873 6.73432836,29.6632836 C7.72656716,29.8423881 20.6149254,29.9319403 20.6149254,29.7349254 C20.6149254,29.5379104 19.5152239,25.2680597 19.4614925,25.2143284 C19.4077612,25.160597 17.158209,24.6770149 14.3856716,24.0823881 C7.93791045,22.678209 8.12059701,22.7319403 7.57970149,22.0835821 L7.11402985,21.5247761 L7.11402985,8.47164179 L7.57970149,7.90567164 C8.12059701,7.25731343 7.93791045,7.31104478 14.3856716,5.90686567 C17.158209,5.31223881 19.4435821,4.81074627 19.4614925,4.77134328 C19.479403,4.7319403 20.6292537,0.39761194 20.6292537,0.254328358 C20.6292537,0.111044776 7.46865672,0.164776119 6.60537313,0.358208955 Z" id="Path"></path>
                <path d="M27.4674627,0.358208955 C27.4674627,0.680597015 28.4919403,4.65671642 28.6029851,4.74985075 C28.638806,4.80358209 31.1104478,5.36238806 34.0549254,5.99283582 C36.999403,6.62328358 39.6358209,7.2680597 39.8686567,7.39701493 C40.1867822,7.57887668 40.453127,7.83905604 40.6423881,8.15283582 C40.9325373,8.65432836 40.9683582,9.19522388 40.9683582,14.9910448 C40.9683582,20.7868657 40.9325373,21.3277612 40.6423881,21.8328358 C40.4472787,22.1419345 40.1822393,22.4008387 39.8686567,22.5886567 C39.6358209,22.7140299 37.0244776,23.3444776 34.0549254,23.9928358 C31.0853731,24.641194 28.6567164,25.1928358 28.6029851,25.2465672 C28.4919403,25.3576119 27.4853731,29.3158209 27.4674627,29.638209 C27.4674627,29.838806 28.7641791,29.8746269 34.4525373,29.8208955 C42.3008955,29.7492537 42.3904478,29.7313433 44.3856716,28.3880597 C45.8210412,27.3993559 46.9058787,25.9809152 47.4841791,24.3367164 C47.8961194,23.1295522 47.8961194,23.0220896 47.8961194,15.0232836 C47.8961194,7.02447761 47.8961194,6.90626866 47.4841791,5.70985075 C46.9076446,4.06565633 45.8223416,2.64786164 44.3856716,1.66208955 C42.3904478,0.311641791 42.3008955,0.293731343 34.4525373,0.229253731 C28.7641791,0.139701493 27.4674627,0.164776119 27.4674627,0.358208955 Z" id="Path"></path>
                <path d="M19.44,14.6292537 C19.3815837,14.8206811 19.3693088,15.0232174 19.4041791,15.2202985 C19.4579104,15.5283582 19.7623881,15.5462687 24.0107463,15.6 L28.5456716,15.6358209 L28.5456716,14.3749254 L24.0465672,14.3749254 C20.2853731,14.3749254 19.5116418,14.4107463 19.44,14.6292537 Z" id="Shape"></path>
            </g>
        </g>
    </g>
</svg>