<?xml version="1.0" encoding="utf-8"?>
<!-- Generator: Adobe Illustrator 22.1.0, SVG Export Plug-In . SVG Version: 6.00 Build 0)  -->
<svg version="1.1" id="图层_1" xmlns="http://www.w3.org/2000/svg" xmlns:xlink="http://www.w3.org/1999/xlink" x="0px" y="0px"
	 viewBox="0 0 27 32" style="enable-background:new 0 0 27 32;" xml:space="preserve">
<style type="text/css">
	.st0{fill:url(#Combined-Shape_1_);}
</style>
<linearGradient id="Combined-Shape_1_" gradientUnits="userSpaceOnUse" x1="6.2779" y1="24.2503" x2="6.2779" y2="23.2503" gradientTransform="matrix(27.009 0 0 -31.9578 -156.0538 774.9863)">
	<stop  offset="0" style="stop-color:#8BEBF5"/>
	<stop  offset="1" style="stop-color:#53A4E7"/>
</linearGradient>
<path id="Combined-Shape" class="st0" d="M0.3,4.2C0.1,4,0,3.7,0,3.5C0,1.6,6,0,13.5,0C20.8,0,26.8,1.5,27,3.4h0l0,0c0,0,0,0,0,0
	c0,0.2,0,0.3-0.1,0.5L23,20.4c-3,1.8-6.3,2.6-9.7,2.6s-6.7-0.9-9.8-2.6L0.3,4.6c0-0.1,0-0.1,0-0.2C0.2,4.3,0.2,4.3,0.3,4.2z M13.5,6
	C18.2,6,22,5.3,22,4.5S18.2,3,13.5,3S5,3.7,5,4.5S8.8,6,13.5,6z M13.8,18.5c2.1,0,3.8-1.7,3.8-3.8S15.8,11,13.8,11S10,12.7,10,14.8
	S11.7,18.5,13.8,18.5z M4.1,23C7.8,25,10.8,26,13.2,26s5.7-1,9.7-3.1v5c-2,2.7-5.1,4-9.4,4s-7.4-1.3-9.4-4V23z M13.8,17.2
	c-1.2,0-2.2-1-2.2-2.2c0-1.2,1-2.2,2.2-2.2s2.2,1,2.2,2.2C16,16.2,15,17.2,13.8,17.2z"/>
</svg>
