<?xml version="1.0" encoding="utf-8"?>
<!-- Generator: Adobe Illustrator 22.1.0, SVG Export Plug-In . SVG Version: 6.00 Build 0)  -->
<svg version="1.1" id="图层_1" xmlns="http://www.w3.org/2000/svg" xmlns:xlink="http://www.w3.org/1999/xlink" x="0px" y="0px"
	 viewBox="0 0 37 36" style="enable-background:new 0 0 37 36;" xml:space="preserve">
<style type="text/css">
	.st0{fill:url(#Combined-Shape_1_);}
</style>
<linearGradient id="Combined-Shape_1_" gradientUnits="userSpaceOnUse" x1="11.845" y1="26.4501" x2="10.9379" y2="25.528" gradientTransform="matrix(36.0502 0 0 -35.8384 -385.5525 941.7979)">
	<stop  offset="0" style="stop-color:#8EF3FE"/>
	<stop  offset="1" style="stop-color:#5AADEA"/>
</linearGradient>
<path id="Combined-Shape" class="st0" d="M28.8,0c3.8,0,6.2,0,7.3,0v6.1c-2,6.2-5.7,11.3-11.1,15.4c-0.5,5.6-0.8,8.5-0.8,8.5
	s-2.9,2-8.8,5.9c-1.6,0-2.5-0.8-2.6-2.2c1.3-4.4,1.9-6.6,1.9-6.6l-5.9-5.5c-1,0.2-3.3,0.7-6.9,1.6c-0.9,0-2.3-1.6-1.8-2.8
	c3.5-5.8,5.3-8.7,5.3-8.7h9.4C17.9,6.2,22.6,2.3,28.8,0z M29,8.5c1.1,0,2-0.9,2-2s-0.9-2-2-2s-2,0.9-2,2S27.9,8.5,29,8.5z"/>
</svg>
