<svg xmlns="http://www.w3.org/2000/svg" viewBox="0 0 152 97">
<filter  filterUnits="objectBoundingBox" height="132.3%" id="filter-6" width="114.4%" x="-7.2%" y="-11.5%">
	<feOffset  dx="0" dy="3" in="SourceAlpha" result="shadowOffsetOuter1"></feOffset>
	<feGaussianBlur  in="shadowOffsetOuter1" result="shadowBlurOuter1" stdDeviation="3"></feGaussianBlur>
	<feColorMatrix  in="shadowBlurOuter1" type="matrix" values="0 0 0 0 0   0 0 0 0 0   0 0 0 0 0  0 0 0 0.3 0"></feColorMatrix>
</filter>
<filter  filterUnits="objectBoundingBox" height="128.3%" id="filter-3" width="110.4%" x="-5.2%" y="-8.5%">
	<feOffset  dx="0" dy="3" in="SourceAlpha" result="shadowOffsetOuter1"></feOffset>
	<feGaussianBlur  in="shadowOffsetOuter1" result="shadowBlurOuter1" stdDeviation="2"></feGaussianBlur>
	<feColorMatrix  in="shadowBlurOuter1" type="matrix" values="0 0 0 0 0   0 0 0 0 0   0 0 0 0 0  0 0 0 0.25 0"></feColorMatrix>
</filter>
<g style="filter:url(#filter-3);">
	<text transform="matrix(1 0 0 1 5.3047 36)" style="font-family:'ArialMT'; font-size:48px;">Privat</text>
	<text transform="matrix(1 0 0 1 122 36)" style="font-family:'ArialMT'; font-size:48px;">e</text>
</g>
<linearGradient id="SVGID_1_" gradientUnits="userSpaceOnUse" x1="22.1211" y1="38" x2="22.1211" y2="1.2491">
	<stop  offset="0" style="stop-color:#53EAAB"/>
	<stop  offset="1" style="stop-color:#4EECFF"/>
</linearGradient>
<path style="fill:url(#SVGID_1_);" d="M9,36V1.6h13c2.3,0,4,0.1,5.2,0.3c1.7,0.3,3.1,0.8,4.2,1.6s2.1,1.9,2.8,3.3s1,3,1,4.7
	c0,2.9-0.9,5.4-2.8,7.4s-5.2,3-10.1,3h-8.8v14H9z M13.6,18h8.9c2.9,0,5-0.5,6.3-1.6s1.9-2.6,1.9-4.6c0-1.4-0.4-2.7-1.1-3.7
	s-1.7-1.7-2.9-2c-0.8-0.2-2.2-0.3-4.2-0.3h-8.8V18z"/>
<linearGradient id="SVGID_2_" gradientUnits="userSpaceOnUse" x1="46.2393" y1="35.75" x2="46.2393" y2="9.6301">
	<stop  offset="0" style="stop-color:#53EAAB"/>
	<stop  offset="1" style="stop-color:#4EECFF"/>
</linearGradient>
<path style="fill:url(#SVGID_2_);" d="M39.5,36V11.1h3.8v3.8c1-1.8,1.9-2.9,2.7-3.5s1.7-0.8,2.7-0.8c1.4,0,2.9,0.5,4.3,1.4l-1.5,3.9
	c-1-0.6-2.1-0.9-3.1-0.9c-0.9,0-1.8,0.3-2.5,0.8s-1.3,1.3-1.6,2.3c-0.5,1.5-0.7,3.1-0.7,4.9v13H39.5z"/>
<linearGradient id="SVGID_3_" gradientUnits="userSpaceOnUse" x1="56.6816" y1="38" x2="56.6816" y2="5.2262">
	<stop  offset="0" style="stop-color:#53EAAB"/>
	<stop  offset="1" style="stop-color:#4EECFF"/>
</linearGradient>
<path style="fill:url(#SVGID_3_);" d="M54.6,6.5V1.6h4.2v4.9H54.6z M54.6,36V11.1h4.2V36H54.6z"/>
<linearGradient id="SVGID_4_" gradientUnits="userSpaceOnUse" x1="73.1123" y1="38" x2="73.1123" y2="5.2262">
	<stop  offset="0" style="stop-color:#53EAAB"/>
	<stop  offset="1" style="stop-color:#4EECFF"/>
</linearGradient>
<path style="fill:url(#SVGID_4_);" d="M71.2,36l-9.5-24.9h4.5L71.5,26c0.6,1.6,1.1,3.3,1.6,5c0.4-1.3,0.9-2.9,1.6-4.7l5.5-15.2h4.3
	L75.1,36H71.2z"/>
<linearGradient id="SVGID_5_" gradientUnits="userSpaceOnUse" x1="97.3242" y1="38" x2="97.3242" y2="5.2262">
	<stop  offset="0" style="stop-color:#53EAAB"/>
	<stop  offset="1" style="stop-color:#4EECFF"/>
</linearGradient>
<path style="fill:url(#SVGID_5_);" d="M103.5,32.9c-1.6,1.3-3.1,2.3-4.5,2.8s-3,0.8-4.7,0.8c-2.7,0-4.8-0.7-6.3-2s-2.2-3-2.2-5.1
	c0-1.2,0.3-2.3,0.8-3.3s1.3-1.8,2.2-2.4s1.9-1.1,3-1.4c0.8-0.2,2.1-0.4,3.8-0.6c3.4-0.4,5.9-0.9,7.5-1.5c0-0.6,0-0.9,0-1.1
	c0-1.7-0.4-2.9-1.2-3.6c-1.1-1-2.7-1.4-4.8-1.4c-2,0-3.4,0.3-4.4,1s-1.6,1.9-2.1,3.7l-4.1-0.6c0.4-1.8,1-3.2,1.9-4.3
	s2.1-1.9,3.7-2.5s3.5-0.9,5.6-0.9c2.1,0,3.9,0.2,5.2,0.8s2.3,1.1,2.9,1.9s1.1,1.7,1.3,2.9c0.1,0.7,0.2,2,0.2,3.9v5.6
	c0,3.9,0.1,6.4,0.3,7.4s0.5,2,1.1,3h-4.4C103.9,35.1,103.7,34.1,103.5,32.9z M103.2,23.5c-1.5,0.6-3.8,1.2-6.9,1.6
	c-1.7,0.2-3,0.5-3.7,0.8s-1.3,0.8-1.7,1.4s-0.6,1.3-0.6,2c0,1.1,0.4,2.1,1.3,2.8s2.1,1.1,3.7,1.1c1.6,0,3.1-0.4,4.3-1.1
	s2.2-1.7,2.8-2.9c0.5-1,0.7-2.4,0.7-4.2V23.5z"/>
<linearGradient id="SVGID_6_" gradientUnits="userSpaceOnUse" x1="116.7783" y1="38" x2="116.7783" y2="5.2262">
	<stop  offset="0" style="stop-color:#53EAAB"/>
	<stop  offset="1" style="stop-color:#4EECFF"/>
</linearGradient>
<path style="fill:url(#SVGID_6_);" d="M122.2,32.2l0.6,3.7c-1.2,0.2-2.2,0.4-3.2,0.4c-1.5,0-2.7-0.2-3.6-0.7s-1.4-1.1-1.8-1.9
	s-0.5-2.4-0.5-5V14.4h-3.1v-3.3h3.1V4.9l4.2-2.5v8.7h4.2v3.3H118v14.6c0,1.2,0.1,2,0.2,2.3s0.4,0.6,0.7,0.8s0.8,0.3,1.4,0.3
	C120.9,32.4,121.5,32.3,122.2,32.2z"/>
<linearGradient id="SVGID_7_" gradientUnits="userSpaceOnUse" x1="135.2305" y1="38" x2="135.2305" y2="5.2262">
	<stop  offset="0" style="stop-color:#53EAAB"/>
	<stop  offset="1" style="stop-color:#4EECFF"/>
</linearGradient>
<path style="fill:url(#SVGID_7_);" d="M142.2,28l4.4,0.5c-0.7,2.5-2,4.5-3.8,5.9s-4.2,2.1-7.1,2.1c-3.6,0-6.5-1.1-8.7-3.4
	s-3.2-5.4-3.2-9.4c0-4.2,1.1-7.4,3.2-9.8s5-3.5,8.4-3.5c3.3,0,6,1.1,8.2,3.4s3.2,5.5,3.2,9.6c0,0.2,0,0.6,0,1.1h-18.6
	c0.2,2.7,0.9,4.8,2.3,6.3s3.1,2.2,5.2,2.2c1.5,0,2.9-0.4,4-1.2S141.6,29.8,142.2,28z M128.4,21.2h13.9c-0.2-2.1-0.7-3.7-1.6-4.7
	c-1.3-1.6-3.1-2.4-5.2-2.4c-1.9,0-3.6,0.6-4.9,1.9S128.5,19,128.4,21.2z"/>
<g style="filter:url(#filter-6);">
	<text transform="matrix(1 0 0 1 3.2498 87)" style="fill:#D8D8D8; font-family:'ArialMT'; font-size:58px; letter-spacing:-1;">Cloud</text>
</g>
<linearGradient id="SVGID_8_" gradientUnits="userSpaceOnUse" x1="24.4902" y1="44" x2="24.4902" y2="89.0174">
	<stop  offset="0" style="stop-color:#8AE9AE"/>
	<stop  offset="1" style="stop-color:#C5DD45"/>
</linearGradient>
<path style="fill:url(#SVGID_8_);" d="M37.3,72.4l5.5,1.4c-1.2,4.5-3.2,8-6.2,10.3c-3,2.4-6.7,3.6-11,3.6c-4.5,0-8.1-0.9-10.9-2.7
	c-2.8-1.8-4.9-4.5-6.4-7.9c-1.5-3.5-2.2-7.2-2.2-11.1c0-4.3,0.8-8.1,2.5-11.3c1.7-3.2,4-5.7,7.1-7.3c3-1.7,6.4-2.5,10.1-2.5
	c4.2,0,7.6,1.1,10.5,3.2s4.8,5.1,5.9,8.9l-5.4,1.3c-1-3-2.4-5.2-4.2-6.6c-1.8-1.4-4.1-2.1-6.9-2.1c-3.2,0-5.9,0.8-8,2.3
	s-3.6,3.6-4.5,6.2c-0.9,2.6-1.3,5.2-1.3,8c0,3.5,0.5,6.6,1.5,9.2c1,2.6,2.6,4.6,4.8,5.9c2.2,1.3,4.5,2,7.1,2c3.1,0,5.7-0.9,7.8-2.7
	S36.6,75.9,37.3,72.4z"/>
<linearGradient id="SVGID_9_" gradientUnits="userSpaceOnUse" x1="50.2344" y1="46" x2="50.2344" y2="90.5007">
	<stop  offset="0" style="stop-color:#8AE9AE"/>
	<stop  offset="1" style="stop-color:#C5DD45"/>
</linearGradient>
<path style="fill:url(#SVGID_9_);" d="M47.7,87V45.5h5.1V87H47.7z"/>
<linearGradient id="SVGID_10_" gradientUnits="userSpaceOnUse" x1="71.7163" y1="46" x2="71.7163" y2="90.5007">
	<stop  offset="0" style="stop-color:#8AE9AE"/>
	<stop  offset="1" style="stop-color:#C5DD45"/>
</linearGradient>
<path style="fill:url(#SVGID_10_);" d="M57.6,72c0-5.6,1.5-9.7,4.6-12.4c2.6-2.2,5.7-3.3,9.5-3.3c4.1,0,7.5,1.4,10.1,4.1
	s3.9,6.5,3.9,11.2c0,3.9-0.6,6.9-1.7,9.1c-1.2,2.2-2.9,3.9-5.1,5.2c-2.2,1.2-4.6,1.8-7.3,1.8c-4.2,0-7.6-1.3-10.2-4
	C58.9,80.9,57.6,77,57.6,72z M62.9,72c0,3.9,0.8,6.7,2.5,8.7c1.7,1.9,3.8,2.9,6.3,2.9c2.5,0,4.6-1,6.3-2.9s2.5-4.9,2.5-8.8
	c0-3.7-0.8-6.5-2.5-8.5c-1.7-1.9-3.8-2.9-6.3-2.9c-2.5,0-4.7,1-6.3,2.9C63.7,65.2,62.9,68.1,62.9,72z"/>
<linearGradient id="SVGID_11_" gradientUnits="userSpaceOnUse" x1="102.6997" y1="46" x2="102.6997" y2="90.5007">
	<stop  offset="0" style="stop-color:#8AE9AE"/>
	<stop  offset="1" style="stop-color:#C5DD45"/>
</linearGradient>
<path style="fill:url(#SVGID_11_);" d="M110.3,87v-4.4c-2.3,3.4-5.5,5.1-9.5,5.1c-1.8,0-3.4-0.3-5-1c-1.5-0.7-2.7-1.5-3.4-2.6
	c-0.7-1-1.3-2.3-1.6-3.8c-0.2-1-0.3-2.6-0.3-4.8V56.9h5.1v16.7c0,2.7,0.1,4.5,0.3,5.4c0.3,1.3,1,2.4,2,3.2c1,0.8,2.3,1.1,3.9,1.1
	s3-0.4,4.3-1.2c1.3-0.8,2.3-1.9,2.8-3.2c0.6-1.3,0.8-3.3,0.8-5.9V56.9h5.1V87H110.3z"/>
<linearGradient id="SVGID_12_" gradientUnits="userSpaceOnUse" x1="132.9194" y1="46" x2="132.9194" y2="90.5007">
	<stop  offset="0" style="stop-color:#8AE9AE"/>
	<stop  offset="1" style="stop-color:#C5DD45"/>
</linearGradient>
<path style="fill:url(#SVGID_12_);" d="M141.2,87v-3.8c-1.9,3-4.7,4.5-8.4,4.5c-2.4,0-4.6-0.7-6.6-2c-2-1.3-3.6-3.2-4.7-5.5
	c-1.1-2.4-1.7-5.1-1.7-8.2c0-3,0.5-5.7,1.5-8.2s2.5-4.3,4.5-5.6s4.2-2,6.7-2c1.8,0,3.4,0.4,4.8,1.1c1.4,0.8,2.6,1.8,3.5,3V45.5h5.1
	V87H141.2z M125.1,72c0,3.9,0.8,6.7,2.4,8.6s3.5,2.9,5.7,2.9c2.2,0,4.1-0.9,5.7-2.7c1.6-1.8,2.3-4.6,2.3-8.3c0-4.1-0.8-7.1-2.4-9.1
	s-3.5-2.9-5.9-2.9c-2.3,0-4.2,0.9-5.7,2.8C125.9,65.1,125.1,68,125.1,72z"/>
</svg>
