<?xml version="1.0" encoding="utf-8"?>
<!-- Generator: Adobe Illustrator 21.0.0, SVG Export Plug-In . SVG Version: 6.00 Build 0)  -->
<svg version="1.1" id="图层_1" xmlns="http://www.w3.org/2000/svg" xmlns:xlink="http://www.w3.org/1999/xlink" x="0px" y="0px"
	 viewBox="0 0 105 102" style="enable-background:new 0 0 105 102;" xml:space="preserve">
<style type="text/css">
	.st0{fill:#FFFFFF;}
	.st1{fill:#100F0D;}
	.st2{fill:#CD1E25;}
</style>
<path class="st0" d="M95,78.9c-2-0.5-4.1-0.7-6.2-0.7c-3.6,0-6.9,0.6-9.3,1.6c-0.3,0.1-0.5,0.4-0.5,0.7c0,0.1,0,0.2,0.1,0.3
	c0.3,0.8-0.2,1.7-2.5,2.2c-3.5,0.8-5.7,4.4-6.9,5.5c-1.5,1.4-5.6,2.3-5,1.4c0.5-0.7,2.4-2.7,3.5-4.9c1-2,1.9-2.5,3.2-4.4
	c0.4-0.5,1.8-2.5,2.2-4c0.5-1.5,0.3-3.4,0.5-4.1c0.3-1.1,1.3-3.5,1.4-4.9c0-0.8-3.2,1.1-4.8,1.1c-1.5,0-3.1-0.9-4.4-1
	c-1.7-0.1-2.8,1.3-4.4,1.1c-0.9-0.1-1.6-0.9-3.2-1c-2.2-0.1-4.9,1.2-10,1.1c-5-0.2-9.6-6.3-10.2-7.3c-0.7-1.1-1.6-1.1-2.6-0.2
	c-1,0.9-2.2,0.2-2.5-0.4c-0.7-1.1-2.4-4.5-5.1-5.2c-3.7-1-5.6,2.1-5.4,4.5c0.2,2.5,1.8,3.1,2.6,4.4c0.7,1.3,1.1,2.1,2.5,2.7
	c1,0.4,1.3,1,1.1,1.8c-0.3,0.7-1.3,0.9-1.9,0.9c-1.4,0.1-2.4-0.3-3.1-0.8c-0.8-0.5-1.5-1.3-2.3-2.6c-0.9-1.4-2.2-2-3.8-2
	c-0.7,0-1.4,0.2-2.1,0.5c-2.5,1.3-5.4,2-8.5,2l-3.6,0c6.8,20.2,25.9,34.8,48.4,34.8C70.1,102.2,85.9,92.9,95,78.9"/>
<path class="st1" d="M52.1,0C23.9,0,1,22.9,1,51.1c0,5.7,0.9,11.2,2.7,16.3h3.6c3.2,0,6.1-0.8,8.5-2c0.6-0.3,1.3-0.5,2.1-0.5
	c1.6,0,2.9,0.6,3.8,2c0.7,1.3,1.4,2,2.3,2.6c0.7,0.5,1.7,0.9,3.2,0.8c0.7,0,1.7-0.2,1.9-0.9c0.3-0.8-0.1-1.4-1.1-1.8
	c-1.4-0.6-1.8-1.4-2.5-2.7c-0.7-1.3-2.3-2-2.6-4.4c-0.2-2.4,1.6-5.5,5.4-4.5c2.7,0.7,4.4,4,5.1,5.2c0.3,0.6,1.5,1.3,2.5,0.4
	c1-0.9,1.9-0.9,2.6,0.2c0.6,1,5.2,7.1,10.2,7.3c5.1,0.2,7.8-1.1,10-1.1c1.5,0.1,2.3,0.8,3.2,1c1.6,0.2,2.7-1.2,4.4-1.1
	c1.4,0.1,2.9,1,4.4,1c1.6,0,4.8-1.9,4.8-1.1c-0.1,1.4-1.1,3.8-1.4,4.9c-0.2,0.8,0,2.6-0.5,4.1c-0.4,1.5-1.8,3.5-2.2,4
	c-1.3,1.9-2.2,2.4-3.2,4.4c-1.1,2.2-3,4.2-3.5,4.9c-0.6,0.8,3.5,0,5-1.4c1.3-1.2,3.5-4.8,6.9-5.5c2.3-0.5,2.8-1.4,2.5-2.2
	c0-0.1-0.1-0.2-0.1-0.3c0-0.3,0.2-0.6,0.5-0.7c2.4-1,5.7-1.6,9.3-1.6c2.1,0,4.2,0.3,6.2,0.7c5.2-8,8.2-17.5,8.2-27.8
	C103.2,22.9,80.3,0,52.1,0L52.1,0z"/>
<path class="st1" d="M63.3,74.2c0.3,0.3,0.7,1.1,0.2,2.2c-0.3,0.6-0.6,1-1.2,1.5c-0.7,0.6-2.1,1.2-4.1,0c-1-0.7-1.1-0.9-2.5-0.7
	c-1,0.1-1.4-0.9-1.1-1.8c0.4-0.9,1.9-1.5,3.8-0.4c0.8,0.5,2.2,1.5,3.3,0.6c0.5-0.4,0.8-0.6,1.4-1.4c0,0,0.1-0.1,0.1-0.1
	C63.3,74.1,63.3,74.2,63.3,74.2"/>
<path class="st2" d="M59.8,10.5c-1.2,0-2.3,0.2-3.5,0.5c-1.7,0.4-5,2.2-11.2,0.8c-10.7-2.4-12.2,2.9-12.8,5.3
	c-0.6,2.3-2.1,8.9-2.1,8.9c-0.5,2.7-1.1,7.4,15.4,10.5c7.7,1.5,8.1,3.5,8.4,4.9c0.6,2.6,1.6,4,2.7,4.8c1.1,0.7,0,1.3-1.2,1.5
	c-3.3,0.3-15.4-3.1-22.6-7.2c-5.9-3.6-6-6.8-4.6-9.6c-8.9-1-15.5,0.8-16.7,5c-2.1,7.2,15.8,19.5,36.2,25.7
	c21.4,6.5,43.4,2,45.9-11.5c1.1-6.1-4-10.6-12.7-12.6c-0.5,1.7-1.2,3.9-4.4,5.5c-0.5,0.2-0.6-0.2-0.4-0.5c1.2-2.1,1.4-2.6,1.8-3.4
	c0.5-1.2,0.7-2.9-0.2-6.4c-1.9-6.9-5.9-16.2-8.8-19.2C66.7,11.4,63.3,10.4,59.8,10.5z M60.7,12.9c0.1,0,0.2,0,0.3,0
	c3.3,0.1,5.9,1.4,5.9,2.9c0,1.5-2.7,2.7-6,2.6c-1.1,0-2.1-0.2-2.9-0.4c-0.1,0-0.2-0.1-0.2-0.2c0-0.1,0.1-0.2,0.2-0.2
	c2-0.5,3.4-1.2,3.3-2c-0.1-1-2.8-1.5-6-1.2c-0.3,0-0.7,0.1-1,0.1c0,0,0,0,0,0c-0.1,0-0.2-0.1-0.2-0.2c0-0.1,0-0.1,0.1-0.1
	c1.1-0.6,2.9-1.1,4.8-1.3C59.6,12.9,60.2,12.9,60.7,12.9z M36.5,19.1c0.5,0,1,0.3,1.2,0.5c0.6,0.7,1.8,1.8,3.3,1.8
	c1.5,0,3.3-0.4,5.8-0.4c2.5,0,4.2,0.9,4.3,1.8c0.1,0.7-0.2,1.3-3,1.5c-5.9,0.4-6.5,1.1-7.6,2.2c-1.6,1.7-3.6-2.2-3.6-2.2
	c-1.2-0.3-2.7-2.2-1.9-4.1C35.4,19.4,35.9,19.1,36.5,19.1z"/>
</svg>
