<?xml version="1.0" encoding="utf-8"?>
<!-- Generator: Adobe Illustrator 22.1.0, SVG Export Plug-In . SVG Version: 6.00 Build 0)  -->
<svg version="1.1" id="图层_1" xmlns="http://www.w3.org/2000/svg" xmlns:xlink="http://www.w3.org/1999/xlink" x="0px" y="0px"
	 viewBox="0 0 27 33" style="enable-background:new 0 0 27 33;" xml:space="preserve">
<style type="text/css">
	.st0{fill:url(#Combined-Shape_1_);}
</style>
<linearGradient id="Combined-Shape_1_" gradientUnits="userSpaceOnUse" x1="6.2778" y1="25.2808" x2="6.2778" y2="24.2808" gradientTransform="matrix(27 0 0 -32.0522 -156 810.3062)">
	<stop  offset="0" style="stop-color:#90F5FF"/>
	<stop  offset="1" style="stop-color:#53A4E7"/>
</linearGradient>
<path id="Combined-Shape" class="st0" d="M13.5,11C6,11,0,8.5,0,5.5S6,0,13.5,0S27,2.5,27,5.5S21,11,13.5,11z M0.1,11.1
	c5.2,1.9,9.6,2.9,13.2,2.9s8-1,13.2-2.9v4.2c-3.9,1.9-8.3,2.8-13.2,2.8s-9.3-0.9-13.2-2.8V11.1z M0.1,18.1c5.2,1.9,9.6,2.9,13.2,2.9
	s8-1,13.2-2.9v4.2c-3.9,1.9-8.3,2.8-13.2,2.8s-9.3-0.9-13.2-2.8V18.1z M0.1,25.1c5.2,1.9,9.6,2.9,13.2,2.9s8-1,13.2-2.9v4.2
	c-3.9,1.9-8.3,2.8-13.2,2.8s-9.3-0.9-13.2-2.8V25.1z"/>
</svg>
