<svg id="圖層_1" data-name="圖層 1" xmlns="http://www.w3.org/2000/svg" viewBox="0 0 244.4 49.61"><defs><style>.cls-1{isolation:isolate;}.cls-2,.cls-3{stroke:#000;stroke-miterlimit:10;}.cls-2{stroke-width:0.3px;}.cls-3{fill:none;stroke-width:1.5px;}</style></defs><g id="TERRA" class="cls-1"><g class="cls-1"><path d="M132.4,3H124V0h20.26V3h-8.4V24.5H132.4Z"/><path d="M165.86,21.46v3H148.08V0h17.29V3H151.58v7.53h12.28v3H151.58v7.92Z"/><path d="M187.91,24.5,182.62,17c-.65,0-1.16.06-1.54.06H175V24.5h-3.5V0h9.55a11.37,11.37,0,0,1,7.49,2.27,7.73,7.73,0,0,1,2.73,6.27,8.15,8.15,0,0,1-1.4,4.83,7.84,7.84,0,0,1-4,2.9l5.81,8.23Zm-1.86-11.87a5,5,0,0,0,1.75-4.09,5,5,0,0,0-1.75-4.08A7.91,7.91,0,0,0,181,3H175v11H181A7.8,7.8,0,0,0,186.05,12.63Z"/><path d="M213.35,24.5,208.07,17c-.66,0-1.17.06-1.54.06h-6.06V24.5H197V0h9.56A11.39,11.39,0,0,1,214,2.27a7.73,7.73,0,0,1,2.73,6.27,8.22,8.22,0,0,1-1.4,4.83,7.92,7.92,0,0,1-4,2.9l5.81,8.23ZM211.5,12.63a5,5,0,0,0,1.75-4.09,5,5,0,0,0-1.75-4.08A7.94,7.94,0,0,0,206.42,3h-5.95v11h5.95A7.83,7.83,0,0,0,211.5,12.63Z"/><path d="M238,18.38H225l-2.7,6.12h-3.6L229.8,0h3.47L244.4,24.5h-3.68Zm-1.23-2.8-5.28-12-5.29,12Z"/></g></g><g id="Group_2484" data-name="Group 2484"><path id="Path_4348" data-name="Path 4348" class="cls-2" d="M43.66,29.67a33.52,33.52,0,0,0-2.75-6.26,33.33,33.33,0,0,0,2.75-6.27c1.26-4.06,1.33-7.6.25-10.32a3.36,3.36,0,0,0-4.52-5,2.61,2.61,0,0,0-.24.23c-2.71-1.07-6.24-1-10.29.27A34.15,34.15,0,0,0,22.6,5.09a34,34,0,0,0-6.27-2.74C12.28,1.08,8.74,1,6,2.09A3.36,3.36,0,1,0,1,6.54a2.65,2.65,0,0,0,.29.29c-1.08,2.72-1,6.26.26,10.31a34,34,0,0,0,2.74,6.27,34.15,34.15,0,0,0-2.74,6.26C.27,33.71.2,37.25,1.27,40a3.36,3.36,0,1,0,4.5,5L6,44.72a11.47,11.47,0,0,0,4.3.76,20.27,20.27,0,0,0,6-1,33.33,33.33,0,0,0,6.27-2.75,33.52,33.52,0,0,0,6.26,2.75,22.06,22.06,0,0,0,5,1l1,0a11.56,11.56,0,0,0,4.28-.75,3.36,3.36,0,0,0,4.95-4.54,1.34,1.34,0,0,0-.2-.21c1.07-2.72,1-6.26-.26-10.31m-2-27.61a2.28,2.28,0,1,1-2.28,2.28,2.28,2.28,0,0,1,2.28-2.28M29.19,3.38a19.36,19.36,0,0,1,5.7-1,10.81,10.81,0,0,1,3.66.6,3.37,3.37,0,0,0,1.76,4.42,3.31,3.31,0,0,0,2.67,0c.91,2.47.8,5.69-.36,9.4a32,32,0,0,1-2.34,5.49A49.32,49.32,0,0,0,33,13a48.55,48.55,0,0,0-9.27-7.31,32.5,32.5,0,0,1,5.5-2.35m-27.94,1A2.28,2.28,0,1,1,3.53,6.62h0A2.28,2.28,0,0,1,1.25,4.34M2.57,16.82C1.41,13.11,1.3,9.89,2.21,7.43A3.36,3.36,0,0,0,6.62,3a10.73,10.73,0,0,1,3.68-.61,19.43,19.43,0,0,1,5.71,1,32.5,32.5,0,0,1,5.5,2.35A50.09,50.09,0,0,0,4.93,22.32a31.43,31.43,0,0,1-2.36-5.5m1,27.92a2.29,2.29,0,1,1,2.28-2.29,2.3,2.3,0,0,1-2.28,2.29M16,43.43c-3.72,1.16-6.93,1.27-9.4.36A3.36,3.36,0,0,0,2.2,39.36c-.9-2.46-.78-5.67.37-9.37A32.4,32.4,0,0,1,4.92,24.5a48.55,48.55,0,0,0,7.31,9.27,49.32,49.32,0,0,0,9.27,7.32A32,32,0,0,1,16,43.43m6.58-3A47.19,47.19,0,0,1,13,33a46.87,46.87,0,0,1-7.46-9.59A49,49,0,0,1,22.6,6.34a47.61,47.61,0,0,1,9.6,7.47,47.15,47.15,0,0,1,7.46,9.59A47.64,47.64,0,0,1,32.2,33a47.67,47.67,0,0,1-9.61,7.47m15.69,2a3.43,3.43,0,0,0,.28,1.35c-2.46.9-5.67.79-9.37-.37a32.26,32.26,0,0,1-5.51-2.35A49.33,49.33,0,0,0,33,33.77a48.93,48.93,0,0,0,7.31-9.28A31.48,31.48,0,0,1,42.62,30c1.16,3.7,1.27,6.91.37,9.37a3.37,3.37,0,0,0-4.43,1.73,3.33,3.33,0,0,0-.28,1.35m5.65,0a2.29,2.29,0,1,1-2.29-2.28,2.29,2.29,0,0,1,2.29,2.28"/><path id="Path_4349" data-name="Path 4349" class="cls-2" d="M32.91,27.53a11.05,11.05,0,0,0,0-8.25.14.14,0,0,0,0-.07,11.1,11.1,0,0,0-20.56,0,.36.36,0,0,0,0,.09,11.12,11.12,0,0,0,0,8.22.36.36,0,0,0,0,.11,11.11,11.11,0,0,0,20.56,0l0-.08M31.55,18.9h-4.1a11.92,11.92,0,0,0-2.21-5.17,10.1,10.1,0,0,1,6.31,5.17M26.8,23.41a21.78,21.78,0,0,1-.25,3.42h-7.9a23.13,23.13,0,0,1,0-6.85h7.9a23.2,23.2,0,0,1,.26,3.43m-4.21-10c1.46,0,3,2.1,3.75,5.52h-7.5c.74-3.42,2.28-5.52,3.75-5.52M20,13.74a11.82,11.82,0,0,0-2.21,5.16H13.64A10.14,10.14,0,0,1,20,13.73M12.57,23.4a10.16,10.16,0,0,1,.6-3.41h4.38a23.75,23.75,0,0,0,0,6.84H13.17a9.93,9.93,0,0,1-.6-3.42m1.07,4.5h4.1A11.81,11.81,0,0,0,20,33.08a10.05,10.05,0,0,1-6.32-5.17m9,5.52c-1.47,0-3-2.1-3.75-5.52h7.5c-.75,3.42-2.29,5.52-3.75,5.52m2.64-.35a11.87,11.87,0,0,0,2.21-5.17h4.1a10.09,10.09,0,0,1-6.31,5.17M32,26.83H27.64a23.82,23.82,0,0,0,0-6.85H32a10,10,0,0,1,0,6.85"/></g><g id="Storage"><g class="cls-1"><path d="M127.33,46.36a4.65,4.65,0,0,1-1.73-1l.55-1.17a4.75,4.75,0,0,0,1.54.88,5.81,5.81,0,0,0,1.93.34,3.43,3.43,0,0,0,1.95-.45,1.34,1.34,0,0,0,.64-1.17,1.14,1.14,0,0,0-.35-.88,2.22,2.22,0,0,0-.87-.52c-.34-.12-.83-.25-1.46-.4a14.77,14.77,0,0,1-1.91-.57,3.24,3.24,0,0,1-1.25-.88,2.39,2.39,0,0,1-.52-1.6,2.65,2.65,0,0,1,.45-1.51,3,3,0,0,1,1.34-1.08,5.42,5.42,0,0,1,2.23-.41,7.07,7.07,0,0,1,1.83.24,4.9,4.9,0,0,1,1.55.69l-.5,1.2a5.61,5.61,0,0,0-1.41-.64,5.44,5.44,0,0,0-1.47-.21,3.24,3.24,0,0,0-1.91.46,1.44,1.44,0,0,0-.64,1.2,1.16,1.16,0,0,0,.36.88,2.48,2.48,0,0,0,.9.52,12.23,12.23,0,0,0,1.44.4,14.77,14.77,0,0,1,1.91.57,3.25,3.25,0,0,1,1.24.87,2.33,2.33,0,0,1,.51,1.58,2.65,2.65,0,0,1-.45,1.5,2.94,2.94,0,0,1-1.36,1.08,5.56,5.56,0,0,1-2.25.4A7.09,7.09,0,0,1,127.33,46.36Z"/><path d="M140.13,46.15a2.22,2.22,0,0,1-.78.41,3.43,3.43,0,0,1-1,.14,2.55,2.55,0,0,1-1.86-.64,2.48,2.48,0,0,1-.66-1.85V39.85h-1.35V38.66h1.35V36.92h1.44v1.74h2.28v1.19h-2.28v4.3a1.38,1.38,0,0,0,.33,1,1.19,1.19,0,0,0,.92.35,1.73,1.73,0,0,0,1.12-.38Z"/><path d="M142.88,46.18a3.89,3.89,0,0,1-1.48-1.45,4.41,4.41,0,0,1,0-4.19,3.86,3.86,0,0,1,1.48-1.44,4.41,4.41,0,0,1,2.13-.51,4.35,4.35,0,0,1,2.12.51,3.77,3.77,0,0,1,1.47,1.44,4.41,4.41,0,0,1,0,4.19,3.79,3.79,0,0,1-1.47,1.45,4.24,4.24,0,0,1-2.12.52A4.31,4.31,0,0,1,142.88,46.18Zm3.5-1.09a2.51,2.51,0,0,0,1-1,3,3,0,0,0,.35-1.46,3.07,3.07,0,0,0-.35-1.47,2.42,2.42,0,0,0-1-1,2.93,2.93,0,0,0-2.74,0,2.45,2.45,0,0,0-1,1,3,3,0,0,0-.36,1.47,2.93,2.93,0,0,0,.36,1.46,2.54,2.54,0,0,0,1,1,2.86,2.86,0,0,0,2.74,0Z"/><path d="M153.62,39a4,4,0,0,1,1.78-.36V40h-.33a2.41,2.41,0,0,0-1.83.69,2.75,2.75,0,0,0-.67,2v4h-1.44v-8h1.38V40A2.46,2.46,0,0,1,153.62,39Z"/><path d="M162.58,39.4a3.1,3.1,0,0,1,.88,2.41v4.8h-1.37v-1a2.32,2.32,0,0,1-1,.85,4.07,4.07,0,0,1-1.59.29,3.28,3.28,0,0,1-2.13-.64,2.07,2.07,0,0,1-.81-1.7,2.1,2.1,0,0,1,.77-1.69,3.8,3.8,0,0,1,2.43-.63H162v-.29a1.82,1.82,0,0,0-.54-1.42,2.28,2.28,0,0,0-1.59-.5,4.34,4.34,0,0,0-1.38.23,3.67,3.67,0,0,0-1.14.63l-.6-1.08a4.27,4.27,0,0,1,1.47-.76,6,6,0,0,1,1.81-.26A3.59,3.59,0,0,1,162.58,39.4Zm-1.43,5.82a2.08,2.08,0,0,0,.87-1V43.07H159.8q-1.83,0-1.83,1.23a1.12,1.12,0,0,0,.46,1,2.13,2.13,0,0,0,1.29.34A2.65,2.65,0,0,0,161.15,45.22Z"/><path d="M173.78,38.66v6.87a4.09,4.09,0,0,1-1,3.08,4.27,4.27,0,0,1-3.09,1,7.19,7.19,0,0,1-2.14-.31,4.17,4.17,0,0,1-1.65-.87l.69-1.11a4,4,0,0,0,1.37.75,5.12,5.12,0,0,0,1.69.28,2.82,2.82,0,0,0,2.06-.66,2.7,2.7,0,0,0,.67-2v-.63a3.16,3.16,0,0,1-1.25.92,4.14,4.14,0,0,1-1.62.31,4.29,4.29,0,0,1-2.06-.49A3.65,3.65,0,0,1,166,44.43a4.13,4.13,0,0,1,0-4,3.63,3.63,0,0,1,1.45-1.35,4.4,4.4,0,0,1,2.06-.48,4.27,4.27,0,0,1,1.68.33,3.1,3.1,0,0,1,1.26,1V38.66Zm-2.74,6a2.48,2.48,0,0,0,1-.92,2.63,2.63,0,0,0,.35-1.34,2.43,2.43,0,0,0-.77-1.87,2.73,2.73,0,0,0-2-.71,2.77,2.77,0,0,0-2,.71,2.43,2.43,0,0,0-.77,1.87,2.54,2.54,0,0,0,.36,1.34,2.46,2.46,0,0,0,1,.92,3,3,0,0,0,1.42.33A2.92,2.92,0,0,0,171,44.69Z"/><path d="M183.68,43.12h-6.45a2.49,2.49,0,0,0,.92,1.68,3,3,0,0,0,2,.64,2.94,2.94,0,0,0,2.29-1l.8.93a3.51,3.51,0,0,1-1.34,1,4.73,4.73,0,0,1-1.8.33,4.62,4.62,0,0,1-2.23-.52,3.68,3.68,0,0,1-1.51-1.44,4.44,4.44,0,0,1,0-4.19,3.73,3.73,0,0,1,1.42-1.45,4.13,4.13,0,0,1,2.05-.51,4,4,0,0,1,2,.51,3.69,3.69,0,0,1,1.4,1.45,4.47,4.47,0,0,1,.5,2.13A4.21,4.21,0,0,1,183.68,43.12Zm-5.63-2.69a2.52,2.52,0,0,0-.82,1.65h5.1a2.52,2.52,0,0,0-.82-1.64,2.44,2.44,0,0,0-1.73-.64A2.47,2.47,0,0,0,178.05,40.43Z"/><path d="M191.8,46a5.1,5.1,0,0,1-2-1.92,5.61,5.61,0,0,1,0-5.5,5.06,5.06,0,0,1,2-1.92,5.79,5.79,0,0,1,2.85-.7,6,6,0,0,1,2.25.41,4.68,4.68,0,0,1,1.74,1.23l-1,.94a3.9,3.9,0,0,0-2.95-1.24,4.3,4.3,0,0,0-2.12.52,3.73,3.73,0,0,0-1.47,1.45,4.2,4.2,0,0,0,0,4.12,3.73,3.73,0,0,0,1.47,1.45,4.3,4.3,0,0,0,2.12.53,3.91,3.91,0,0,0,2.95-1.26l1,.94a4.64,4.64,0,0,1-1.75,1.23,5.91,5.91,0,0,1-2.26.42A5.75,5.75,0,0,1,191.8,46Z"/><path d="M201.53,46.18a3.89,3.89,0,0,1-1.48-1.45,4.41,4.41,0,0,1,0-4.19,3.86,3.86,0,0,1,1.48-1.44,4.41,4.41,0,0,1,2.13-.51,4.35,4.35,0,0,1,2.12.51,3.77,3.77,0,0,1,1.47,1.44,4.41,4.41,0,0,1,0,4.19,3.79,3.79,0,0,1-1.47,1.45,4.24,4.24,0,0,1-2.12.52A4.31,4.31,0,0,1,201.53,46.18Zm3.5-1.09a2.51,2.51,0,0,0,.95-1,3,3,0,0,0,.35-1.46,3.07,3.07,0,0,0-.35-1.47,2.42,2.42,0,0,0-.95-1,2.93,2.93,0,0,0-2.74,0,2.45,2.45,0,0,0-1,1,3,3,0,0,0-.36,1.47,2.93,2.93,0,0,0,.36,1.46,2.54,2.54,0,0,0,1,1,2.86,2.86,0,0,0,2.74,0Z"/><path d="M216.43,39.46a3.46,3.46,0,0,1,.89,2.58v4.57h-1.44V42.2a2.44,2.44,0,0,0-.55-1.74,2.08,2.08,0,0,0-1.59-.58,2.47,2.47,0,0,0-1.85.68,2.66,2.66,0,0,0-.67,2v4.09h-1.44v-8h1.38v1.2a2.77,2.77,0,0,1,1.18-.94,4.06,4.06,0,0,1,1.68-.33A3.3,3.3,0,0,1,216.43,39.46Z"/><path d="M224.46,46.15a2.22,2.22,0,0,1-.78.41,3.43,3.43,0,0,1-1,.14,2.55,2.55,0,0,1-1.86-.64,2.48,2.48,0,0,1-.66-1.85V39.85h-1.35V38.66h1.35V36.92h1.44v1.74h2.28v1.19h-2.28v4.3a1.38,1.38,0,0,0,.33,1,1.19,1.19,0,0,0,.92.35,1.73,1.73,0,0,0,1.12-.38Z"/><path d="M228.69,39a4.05,4.05,0,0,1,1.79-.36V40h-.33a2.45,2.45,0,0,0-1.84.69,2.8,2.8,0,0,0-.67,2v4H226.2v-8h1.38V40A2.46,2.46,0,0,1,228.69,39Z"/><path d="M233.45,46.18A3.89,3.89,0,0,1,232,44.73a4.41,4.41,0,0,1,0-4.19,3.86,3.86,0,0,1,1.48-1.44,4.41,4.41,0,0,1,2.13-.51,4.35,4.35,0,0,1,2.12.51,3.77,3.77,0,0,1,1.47,1.44,4.41,4.41,0,0,1,0,4.19,3.79,3.79,0,0,1-1.47,1.45,4.24,4.24,0,0,1-2.12.52A4.31,4.31,0,0,1,233.45,46.18Zm3.5-1.09a2.51,2.51,0,0,0,1-1,3,3,0,0,0,.35-1.46,3.07,3.07,0,0,0-.35-1.47,2.42,2.42,0,0,0-1-1,2.93,2.93,0,0,0-2.74,0,2.45,2.45,0,0,0-1,1,3,3,0,0,0-.36,1.47,2.93,2.93,0,0,0,.36,1.46,2.54,2.54,0,0,0,1,1,2.86,2.86,0,0,0,2.74,0Z"/><path d="M241.7,35.48h1.44V46.61H241.7Z"/></g></g><line class="cls-3" x1="87.34" y1="44.16" x2="87.34" y2="0.51"/></svg>