<svg id="圖層_1" data-name="圖層 1" xmlns="http://www.w3.org/2000/svg" viewBox="0 0 241.5 47.31"><defs><style>.cls-1{isolation:isolate;}.cls-2,.cls-3,.cls-5{fill:none;}.cls-2,.cls-5,.cls-6{stroke:#000;}.cls-2{stroke-miterlimit:10;stroke-width:1.5px;}.cls-3,.cls-4{stroke:#231815;stroke-width:1.59px;}.cls-3,.cls-4,.cls-5,.cls-6{stroke-linecap:round;stroke-linejoin:round;}.cls-4,.cls-6{fill:#fff;}.cls-5,.cls-6{stroke-width:1.34px;}</style></defs><g id="TERRA" class="cls-1"><g class="cls-1"><path d="M133.3,14.23l-4.48,4.55v6.33h-3.5V.61h3.5V14.3L142.12.61h4l-10.47,11,11.13,13.47h-4.09Z"/><path d="M165.11,19h-13l-2.69,6.12h-3.61L156.89.61h3.46l11.13,24.5h-3.67Zm-1.22-2.8-5.29-12-5.28,12Z"/><path d="M196.19.61v24.5h-3.5V14.19H178.62V25.11h-3.5V.61h3.5V11.15h14.07V.61Z"/><path d="M206.06,22.59q-2.73-2.81-2.73-8V.61h3.5V14.4q0,7.87,6.9,7.88a6.61,6.61,0,0,0,5.14-2q1.78-1.93,1.79-5.93V.61h3.39V14.54q0,5.28-2.73,8.07t-7.63,2.78C210.43,25.39,207.88,24.46,206.06,22.59Z"/></g></g><g id="Storage"><g class="cls-1"><path d="M123.84,36.72h4.43a6.38,6.38,0,0,1,2.95.66,4.84,4.84,0,0,1,2,1.85,5.57,5.57,0,0,1,0,5.48,4.84,4.84,0,0,1-2,1.85,6.38,6.38,0,0,1-2.95.66h-4.43Zm4.34,9.2a4.86,4.86,0,0,0,2.24-.5A3.58,3.58,0,0,0,131.91,44a4.27,4.27,0,0,0,0-4.12,3.58,3.58,0,0,0-1.49-1.39,4.86,4.86,0,0,0-2.24-.49h-2.84v7.89Z"/><path d="M141.44,40a3.1,3.1,0,0,1,.88,2.41v4.8H141v-1a2.35,2.35,0,0,1-1,.85,4,4,0,0,1-1.58.29,3.31,3.31,0,0,1-2.14-.64,2.06,2.06,0,0,1-.8-1.7,2.1,2.1,0,0,1,.76-1.69,3.8,3.8,0,0,1,2.43-.63h2.28v-.29a1.82,1.82,0,0,0-.54-1.42,2.28,2.28,0,0,0-1.59-.5,4.34,4.34,0,0,0-1.38.23,3.67,3.67,0,0,0-1.14.63l-.6-1.08a4.27,4.27,0,0,1,1.47-.76,6,6,0,0,1,1.82-.26A3.57,3.57,0,0,1,141.44,40ZM140,45.83a2.08,2.08,0,0,0,.87-1V43.68h-2.22q-1.83,0-1.83,1.23a1.13,1.13,0,0,0,.47,1,2.13,2.13,0,0,0,1.29.34A2.61,2.61,0,0,0,140,45.83Z"/><path d="M149.46,46.76a2.22,2.22,0,0,1-.78.41,3.43,3.43,0,0,1-1,.14,2.55,2.55,0,0,1-1.86-.64,2.48,2.48,0,0,1-.66-1.85V40.46h-1.35V39.27h1.35V37.53h1.44v1.74h2.28v1.19h-2.28v4.3a1.42,1.42,0,0,0,.32,1,1.23,1.23,0,0,0,.93.35,1.73,1.73,0,0,0,1.12-.38Z"/><path d="M156.62,40a3.1,3.1,0,0,1,.88,2.41v4.8h-1.36v-1a2.35,2.35,0,0,1-1,.85,4,4,0,0,1-1.58.29,3.31,3.31,0,0,1-2.14-.64,2.06,2.06,0,0,1-.8-1.7,2.1,2.1,0,0,1,.76-1.69,3.8,3.8,0,0,1,2.43-.63h2.28v-.29a1.82,1.82,0,0,0-.54-1.42,2.28,2.28,0,0,0-1.59-.5,4.34,4.34,0,0,0-1.38.23,3.67,3.67,0,0,0-1.14.63l-.6-1.08a4.27,4.27,0,0,1,1.47-.76,6,6,0,0,1,1.82-.26A3.57,3.57,0,0,1,156.62,40Zm-1.43,5.82a2.08,2.08,0,0,0,.87-1V43.68h-2.22q-1.83,0-1.83,1.23a1.13,1.13,0,0,0,.47,1,2.13,2.13,0,0,0,1.29.34A2.61,2.61,0,0,0,155.19,45.83Z"/><path d="M171.72,37.7a3.67,3.67,0,0,1,0,5.37,4.86,4.86,0,0,1-3.21,1h-2.59v3.18h-1.5V36.72h4.09A4.87,4.87,0,0,1,171.72,37.7Zm-1.08,4.43a2.42,2.42,0,0,0,0-3.5,3.4,3.4,0,0,0-2.17-.6h-2.55v4.71h2.55A3.4,3.4,0,0,0,170.64,42.13Z"/><path d="M177.24,39.56A4.05,4.05,0,0,1,179,39.2v1.39h-.33a2.44,2.44,0,0,0-1.84.69,2.75,2.75,0,0,0-.67,2v4h-1.44V39.27h1.38v1.34A2.46,2.46,0,0,1,177.24,39.56Z"/><path d="M182,46.79a3.75,3.75,0,0,1-1.48-1.45,4.41,4.41,0,0,1,0-4.19A3.73,3.73,0,0,1,182,39.71a4.68,4.68,0,0,1,4.25,0,3.91,3.91,0,0,1,1.47,1.44,4.41,4.41,0,0,1,0,4.19,3.93,3.93,0,0,1-1.47,1.45,4.6,4.6,0,0,1-4.25,0Zm3.5-1.09a2.58,2.58,0,0,0,.95-1,3,3,0,0,0,.35-1.46,3.07,3.07,0,0,0-.35-1.47,2.49,2.49,0,0,0-.95-1,3,3,0,0,0-2.75,0,2.58,2.58,0,0,0-1,1,3.07,3.07,0,0,0-.35,1.47,3,3,0,0,0,.35,1.46,2.68,2.68,0,0,0,1,1,2.88,2.88,0,0,0,2.75,0Z"/><path d="M194.72,46.76a2.22,2.22,0,0,1-.78.41,3.43,3.43,0,0,1-1,.14,2.59,2.59,0,0,1-1.87-.64,2.51,2.51,0,0,1-.65-1.85V40.46h-1.35V39.27h1.35V37.53h1.44v1.74h2.28v1.19H191.9v4.3a1.37,1.37,0,0,0,.32,1,1.19,1.19,0,0,0,.92.35,1.77,1.77,0,0,0,1.13-.38Z"/><path d="M203.34,43.73h-6.45a2.49,2.49,0,0,0,.92,1.68,3,3,0,0,0,2,.64,3,3,0,0,0,2.3-1l.79.93a3.51,3.51,0,0,1-1.34,1,5.06,5.06,0,0,1-4-.19A3.68,3.68,0,0,1,196,45.35a4.44,4.44,0,0,1,0-4.19,3.73,3.73,0,0,1,1.42-1.45,4.13,4.13,0,0,1,2.05-.51,4,4,0,0,1,2,.51,3.69,3.69,0,0,1,1.4,1.45,4.47,4.47,0,0,1,.5,2.13A4.21,4.21,0,0,1,203.34,43.73ZM197.71,41a2.52,2.52,0,0,0-.82,1.65H202a2.52,2.52,0,0,0-.82-1.64,2.44,2.44,0,0,0-1.73-.64A2.47,2.47,0,0,0,197.71,41Z"/><path d="M206.66,46.79a3.92,3.92,0,0,1-1.49-1.45,4.33,4.33,0,0,1,0-4.19,3.89,3.89,0,0,1,1.49-1.44,4.54,4.54,0,0,1,2.17-.51,4.18,4.18,0,0,1,1.93.43,3.12,3.12,0,0,1,1.31,1.26L211,41.6a2.46,2.46,0,0,0-.93-.86,2.65,2.65,0,0,0-1.23-.28,2.88,2.88,0,0,0-1.41.34,2.47,2.47,0,0,0-1,1,3,3,0,0,0-.35,1.47,2.91,2.91,0,0,0,.35,1.47,2.43,2.43,0,0,0,1,1,2.88,2.88,0,0,0,1.41.34,2.65,2.65,0,0,0,1.23-.28,2.46,2.46,0,0,0,.93-.86l1.09.69a3.21,3.21,0,0,1-1.31,1.27,4.19,4.19,0,0,1-1.93.44A4.44,4.44,0,0,1,206.66,46.79Z"/><path d="M218.51,46.76a2.32,2.32,0,0,1-.78.41,3.43,3.43,0,0,1-1,.14,2.55,2.55,0,0,1-1.86-.64,2.48,2.48,0,0,1-.66-1.85V40.46H212.9V39.27h1.35V37.53h1.44v1.74H218v1.19h-2.28v4.3a1.37,1.37,0,0,0,.32,1,1.19,1.19,0,0,0,.92.35,1.75,1.75,0,0,0,1.13-.38Z"/><path d="M220.27,37.47a.87.87,0,0,1-.28-.66.91.91,0,0,1,.28-.67,1,1,0,0,1,.7-.27.93.93,0,0,1,.69.26.83.83,0,0,1,.28.65,1,1,0,0,1-1,1A1,1,0,0,1,220.27,37.47Zm0,1.8h1.44v7.95h-1.44Z"/><path d="M225.71,46.79a3.82,3.82,0,0,1-1.48-1.45,4.41,4.41,0,0,1,0-4.19,3.8,3.8,0,0,1,1.48-1.44,4.68,4.68,0,0,1,4.25,0,3.91,3.91,0,0,1,1.47,1.44,4.41,4.41,0,0,1,0,4.19A3.93,3.93,0,0,1,230,46.79a4.6,4.6,0,0,1-4.25,0Zm3.5-1.09a2.58,2.58,0,0,0,.95-1,3,3,0,0,0,.35-1.46,3.07,3.07,0,0,0-.35-1.47,2.49,2.49,0,0,0-.95-1,2.73,2.73,0,0,0-1.37-.34,2.77,2.77,0,0,0-1.38.34,2.58,2.58,0,0,0-1,1,3.07,3.07,0,0,0-.35,1.47,3,3,0,0,0,.35,1.46,2.68,2.68,0,0,0,1,1,2.77,2.77,0,0,0,1.38.35A2.74,2.74,0,0,0,229.21,45.7Z"/><path d="M240.61,40.07a3.5,3.5,0,0,1,.89,2.58v4.57h-1.44V42.81a2.49,2.49,0,0,0-.55-1.74,2.08,2.08,0,0,0-1.59-.58,2.47,2.47,0,0,0-1.85.68,2.66,2.66,0,0,0-.67,2v4.09H234V39.27h1.38v1.2a2.8,2.8,0,0,1,1.17-.94,4.14,4.14,0,0,1,1.69-.33A3.32,3.32,0,0,1,240.61,40.07Z"/></g></g><line class="cls-2" x1="85.13" y1="44.77" x2="85.13" y2="1.12"/><path class="cls-3" d="M1.08,16.7a7.13,7.13,0,0,1,8.67-4.89"/><path class="cls-3" d="M5.92,25.53A7.12,7.12,0,0,1,1.08,16.7"/><path class="cls-3" d="M34.22,11.81A7.12,7.12,0,0,1,38,25.53"/><path class="cls-4" d="M22.72,45.79C30.78,45.79,39,43,39.58,33.68,40.26,23.75,36.26.79,22.72.79H21C7.86.79,3.75,23.43,4.32,33.07s8,12.72,16.7,12.72Z"/><path class="cls-5" d="M21.8,1.54V23a6.55,6.55,0,0,1-4.95,6.18L4.71,32.64"/><path class="cls-5" d="M21.8,1.54V23a6.53,6.53,0,0,0,4.87,6.18l11.92,3.43"/><line class="cls-3" x1="24.37" y1="37.51" x2="19.67" y2="37.51"/><path class="cls-3" d="M15.31,37.05a2.86,2.86,0,1,1-2.86-2.86A2.86,2.86,0,0,1,15.31,37.05Z"/><path class="cls-3" d="M34.33,37.05a2.86,2.86,0,1,1-2.85-2.86A2.85,2.85,0,0,1,34.33,37.05Z"/><path class="cls-6" d="M21.62,24.1S16.17,22,16.17,18.5V13.36l5.45-3.28,5.46,3.28V18.5C27.08,22,21.62,24.1,21.62,24.1Z"/><rect class="cls-5" x="19.29" y="16.31" width="4.67" height="3.12"/><path class="cls-5" d="M20.07,16.31V14.75a1.54,1.54,0,0,1,1.55-1.55h0a1.55,1.55,0,0,1,1.56,1.55v1.56"/><line class="cls-5" x1="10.96" y1="14.9" x2="8.6" y2="23.36"/><line class="cls-5" x1="35.18" y1="23.36" x2="32.82" y2="14.9"/></svg>