<svg id="圖層_1" data-name="圖層 1" xmlns="http://www.w3.org/2000/svg" viewBox="0 0 264.33 49.89"><defs><style>.cls-1,.cls-2,.cls-4{fill:none;}.cls-1,.cls-2{stroke:#231815;stroke-linecap:round;stroke-linejoin:round;}.cls-1{stroke-width:1.59px;}.cls-2{stroke-width:1.32px;}.cls-3{isolation:isolate;}.cls-4{stroke:#000;stroke-miterlimit:10;stroke-width:1.5px;}</style></defs><path class="cls-1" d="M4.54,34.08l3.83-14.3c.72-2.68,2.07-6.05,3.85-7.94"/><path class="cls-1" d="M4.17,34l.37.1L7.41,23.36,7,23.26a4.55,4.55,0,0,0-5.57,3.22L1,28.41A4.55,4.55,0,0,0,4.17,34Z"/><path class="cls-1" d="M20,12.34a4.57,4.57,0,0,1,6.26,0"/><path class="cls-1" d="M16.61,8.84a9.26,9.26,0,0,1,13,0"/><path class="cls-1" d="M13.25,5.36A13.87,13.87,0,0,1,33,5.36"/><path class="cls-1" d="M34.3,11.84c1.82,1.9,3.19,5.22,3.92,7.94l3.83,14.3"/><path class="cls-1" d="M39.54,23.26l-.36.1,2.87,10.72.37-.1a4.55,4.55,0,0,0,3.22-5.57l-.52-1.93A4.56,4.56,0,0,0,39.54,23.26Z"/><path class="cls-1" d="M32.6,41.72l4.77-1.28a6.16,6.16,0,0,0,4.36-7.55h0"/><path class="cls-1" d="M30.86,44.74l-2.38.64a2.46,2.46,0,0,1-3-1.75h0a2.46,2.46,0,0,1,1.74-3L29.58,40a2.46,2.46,0,0,1,3,1.75h0A2.46,2.46,0,0,1,30.86,44.74Z"/><path class="cls-1" d="M10.68,14.21C12,15.6,15.11,17.7,23.22,17.7c7.74,0,11-2,12.29-3.49"/><circle class="cls-1" cx="22.93" cy="29.61" r="7.07"/><line class="cls-1" x1="22.93" y1="28.22" x2="22.93" y2="31"/><path class="cls-2" d="M10.21,40.21a2.83,2.83,0,1,1-2.9-2.75A2.83,2.83,0,0,1,10.21,40.21Z"/><path class="cls-2" d="M8.82,37.73l1.48,1a19.52,19.52,0,0,0,8.87,3l1.82.16"/><g id="TERRA" class="cls-3"><g class="cls-3"><path d="M130.12,24.2a11,11,0,0,1-4-2.22l1.29-2.73A10.88,10.88,0,0,0,131,21.3a13.32,13.32,0,0,0,4.5.78,8.1,8.1,0,0,0,4.55-1,3.18,3.18,0,0,0,1.5-2.75,2.67,2.67,0,0,0-.82-2,5.49,5.49,0,0,0-2-1.21c-.8-.28-1.94-.6-3.41-1a33.82,33.82,0,0,1-4.47-1.33,7.37,7.37,0,0,1-2.9-2A5.5,5.5,0,0,1,126.67,7a6.38,6.38,0,0,1,1-3.54A7.12,7.12,0,0,1,130.84.94,12.71,12.71,0,0,1,136.05,0a16.63,16.63,0,0,1,4.27.56,11.38,11.38,0,0,1,3.61,1.61L142.77,5a12.69,12.69,0,0,0-3.29-1.49A12.19,12.19,0,0,0,136.05,3a7.58,7.58,0,0,0-4.46,1.09,3.33,3.33,0,0,0-1.49,2.8,2.69,2.69,0,0,0,.84,2.05A5.89,5.89,0,0,0,133,10.13a33.14,33.14,0,0,0,3.37.93,34,34,0,0,1,4.45,1.33,7.49,7.49,0,0,1,2.89,2,5.35,5.35,0,0,1,1.2,3.67,6.24,6.24,0,0,1-1.05,3.52,7.06,7.06,0,0,1-3.18,2.52,13.19,13.19,0,0,1-5.25.93A16.82,16.82,0,0,1,130.12,24.2Z"/><path d="M154.57,3.32h-8.4v-3h20.26v3H158V24.78h-3.46Z"/><path d="M186.63,24.78l-5.29-7.53c-.65.05-1.16.07-1.54.07h-6.05v7.46h-3.5V.28h9.55a11.39,11.39,0,0,1,7.49,2.27A7.73,7.73,0,0,1,190,8.82a8.22,8.22,0,0,1-1.4,4.83,7.84,7.84,0,0,1-4,2.9l5.81,8.23Zm-1.86-11.87a5,5,0,0,0,1.75-4.09,5,5,0,0,0-1.75-4.08,7.91,7.91,0,0,0-5.07-1.42h-5.95v11h5.95A7.8,7.8,0,0,0,184.77,12.91Z"/><path d="M211.3,18.65h-13l-2.69,6.13H192L203.08.28h3.46l11.13,24.5H214Zm-1.22-2.8-5.29-12-5.28,12Z"/><path d="M225,3.32h-8.4v-3h20.27v3h-8.4V24.78H225Z"/><path d="M244.66,23.43a11.92,11.92,0,0,1-4.68-4.5,12.32,12.32,0,0,1-1.69-6.4A12.38,12.38,0,0,1,240,6.12a12,12,0,0,1,4.68-4.49,14.44,14.44,0,0,1,13.33,0,12,12,0,0,1,4.66,4.48,12.4,12.4,0,0,1,1.68,6.42A12.4,12.4,0,0,1,262.65,19,12,12,0,0,1,258,23.43a14.44,14.44,0,0,1-13.33,0Zm11.53-2.71a9,9,0,0,0,3.39-3.38,9.43,9.43,0,0,0,1.25-4.81,9.43,9.43,0,0,0-1.25-4.81,9,9,0,0,0-3.39-3.38,9.61,9.61,0,0,0-4.85-1.23,9.77,9.77,0,0,0-4.88,1.23A8.91,8.91,0,0,0,243,7.72a9.42,9.42,0,0,0-1.24,4.81A9.42,9.42,0,0,0,243,17.34a8.91,8.91,0,0,0,3.43,3.38,9.77,9.77,0,0,0,4.88,1.22A9.6,9.6,0,0,0,256.19,20.72Z"/></g></g><g id="Storage"><g class="cls-3"><path d="M126.22,36.39h4.42a6.42,6.42,0,0,1,3,.66,4.9,4.9,0,0,1,2,1.85,5.64,5.64,0,0,1,0,5.48,4.9,4.9,0,0,1-2,1.85,6.42,6.42,0,0,1-3,.66h-4.42Zm4.33,9.2a4.83,4.83,0,0,0,2.24-.5,3.54,3.54,0,0,0,1.5-1.39,4.34,4.34,0,0,0,0-4.12,3.54,3.54,0,0,0-1.5-1.39,4.83,4.83,0,0,0-2.24-.49h-2.83v7.89Z"/><path d="M143.82,39.68a3.13,3.13,0,0,1,.88,2.41v4.8h-1.37v-1a2.29,2.29,0,0,1-1,.85,4,4,0,0,1-1.58.29,3.33,3.33,0,0,1-2.14-.64,2.22,2.22,0,0,1,0-3.39,3.8,3.8,0,0,1,2.43-.63h2.28V42a1.82,1.82,0,0,0-.54-1.42,2.28,2.28,0,0,0-1.59-.5,4.34,4.34,0,0,0-1.38.23,3.67,3.67,0,0,0-1.14.63l-.6-1.08a4.27,4.27,0,0,1,1.47-.76,6,6,0,0,1,1.81-.26A3.61,3.61,0,0,1,143.82,39.68Zm-1.43,5.82a2.08,2.08,0,0,0,.87-1V43.35H141q-1.83,0-1.83,1.23a1.12,1.12,0,0,0,.46,1,2.13,2.13,0,0,0,1.29.34A2.65,2.65,0,0,0,142.39,45.5Z"/><path d="M151.84,46.43a2.22,2.22,0,0,1-.78.41,3.43,3.43,0,0,1-1,.14,2.55,2.55,0,0,1-1.86-.64,2.48,2.48,0,0,1-.66-1.85V40.13h-1.35V38.94h1.35V37.2H149v1.74h2.28v1.19H149v4.3a1.37,1.37,0,0,0,.32,1,1.19,1.19,0,0,0,.92.35,1.75,1.75,0,0,0,1.13-.38Z"/><path d="M159,39.68a3.13,3.13,0,0,1,.88,2.41v4.8h-1.37v-1a2.29,2.29,0,0,1-1,.85,4,4,0,0,1-1.58.29,3.33,3.33,0,0,1-2.14-.64,2.22,2.22,0,0,1,0-3.39,3.8,3.8,0,0,1,2.43-.63h2.28V42a1.82,1.82,0,0,0-.54-1.42,2.28,2.28,0,0,0-1.59-.5,4.34,4.34,0,0,0-1.38.23,3.67,3.67,0,0,0-1.14.63l-.6-1.08a4.27,4.27,0,0,1,1.47-.76,6,6,0,0,1,1.81-.26A3.61,3.61,0,0,1,159,39.68Zm-1.43,5.82a2.08,2.08,0,0,0,.87-1V43.35h-2.22q-1.83,0-1.83,1.23a1.12,1.12,0,0,0,.46,1,2.13,2.13,0,0,0,1.29.34A2.65,2.65,0,0,0,157.57,45.5Z"/><path d="M176.53,46.89l0-7.65-3.79,6.38H172l-3.8-6.33v7.6h-1.44V36.39H168l4.38,7.38,4.32-7.38H178l0,10.5Z"/><path d="M182.18,46.46A3.89,3.89,0,0,1,180.7,45a4.41,4.41,0,0,1,0-4.19,3.86,3.86,0,0,1,1.48-1.44,4.41,4.41,0,0,1,2.13-.51,4.35,4.35,0,0,1,2.12.51,3.77,3.77,0,0,1,1.47,1.44,4.33,4.33,0,0,1,0,4.19,3.79,3.79,0,0,1-1.47,1.45,4.24,4.24,0,0,1-2.12.52A4.31,4.31,0,0,1,182.18,46.46Zm3.5-1.09a2.54,2.54,0,0,0,1-1,3,3,0,0,0,.34-1.46,3.07,3.07,0,0,0-.34-1.47,2.45,2.45,0,0,0-1-1,2.93,2.93,0,0,0-2.74,0,2.45,2.45,0,0,0-1,1,3,3,0,0,0-.35,1.47,2.92,2.92,0,0,0,.35,1.46,2.54,2.54,0,0,0,1,1,2.86,2.86,0,0,0,2.74,0Z"/><path d="M196.72,39.38a3.68,3.68,0,0,1,1.43,1.42,4.58,4.58,0,0,1,0,4.24,3.71,3.71,0,0,1-1.43,1.43,4.18,4.18,0,0,1-2.07.51,3.76,3.76,0,0,1-1.62-.34,3.15,3.15,0,0,1-1.22-1v1.26h-1.38V35.76h1.44v4.38a3,3,0,0,1,1.2-1,3.75,3.75,0,0,1,1.58-.32A4.18,4.18,0,0,1,196.72,39.38Zm-.82,6a2.68,2.68,0,0,0,1-1,3,3,0,0,0,.35-1.46,3.07,3.07,0,0,0-.35-1.47,2.58,2.58,0,0,0-1-1,2.93,2.93,0,0,0-2.74,0,2.45,2.45,0,0,0-1,1,3.07,3.07,0,0,0-.34,1.47,3,3,0,0,0,.34,1.46,2.54,2.54,0,0,0,1,1,2.86,2.86,0,0,0,2.74,0Z"/><path d="M200.68,37.14a.9.9,0,0,1-.27-.66.94.94,0,0,1,.27-.67,1.06,1.06,0,0,1,1.4,0,.87.87,0,0,1,.28.65,1,1,0,0,1-1,1A1,1,0,0,1,200.68,37.14Zm0,1.8h1.44v8h-1.44Z"/><path d="M204.85,35.76h1.44V46.89h-1.44Z"/><path d="M209.05,37.14a.9.9,0,0,1-.27-.66.94.94,0,0,1,.27-.67,1.06,1.06,0,0,1,1.4,0,.87.87,0,0,1,.28.65,1,1,0,0,1-1,1A1,1,0,0,1,209.05,37.14Zm0,1.8h1.44v8H209Z"/><path d="M217.69,46.43a2.22,2.22,0,0,1-.78.41,3.43,3.43,0,0,1-1,.14,2.55,2.55,0,0,1-1.86-.64,2.48,2.48,0,0,1-.66-1.85V40.13h-1.35V38.94h1.35V37.2h1.44v1.74h2.28v1.19h-2.28v4.3a1.37,1.37,0,0,0,.32,1,1.19,1.19,0,0,0,.92.35,1.75,1.75,0,0,0,1.13-.38Z"/><path d="M226.31,38.94l-3.85,8.75a3.91,3.91,0,0,1-1.2,1.71,2.7,2.7,0,0,1-1.64.49,3.31,3.31,0,0,1-1.13-.19,2.23,2.23,0,0,1-.91-.54l.62-1.08a2,2,0,0,0,1.42.58,1.36,1.36,0,0,0,.88-.28,2.37,2.37,0,0,0,.64-1l.25-.55-3.51-7.94h1.5l2.78,6.36,2.74-6.36Z"/></g></g><line class="cls-4" x1="88.13" y1="44.44" x2="88.13" y2="0.79"/></svg>